<?xml version="1.0" encoding="utf-8"?>
<svg viewBox="0 0 260 65" width="260" height="65" xmlns="http://www.w3.org/2000/svg">
  <defs>
    <style>@import url(https://fonts.googleapis.com/css2?family=Bruno+Ace%3Aital%2Cwght%400%2C400&amp;display=swap);</style>
  </defs>
  <g transform="matrix(0.06375599652528763, 0, 0, 0.06375599652528763, 111.27904510498045, 0.27090001106262207)">
    <g id="Colors__x28_mostly_x29__1_" transform="matrix(1, 0, 0, 1, -1874.309204, -27.907627)">
      <g id="Colors_A_1_">
        <g id="Face_1_">
          <g id="Skin_2_">
            <g id="Skin">
              <g>
                <polygon fill-rule="evenodd" clip-rule="evenodd" fill="#FEF7EF" points="685.932,345.74 472.748,440.921 537.028,671.957 &#10;&#9;&#9;&#9;&#9;&#9;&#9;&#9;691.627,781.78 775.437,740.292 901.557,586.539 906.438,418.956 &#9;&#9;&#9;&#9;&#9;&#9;"/>
              </g>
            </g>
          </g>
          <g id="Shade_3_">
            <g id="Shape_67">
              <g>
                <path fill-rule="evenodd" clip-rule="evenodd" fill="#FFC4A8" d="M556,602c-12.155-39.5-44.62-59.506-49.396-76&#10;&#9;&#9;&#9;&#9;&#9;&#9;&#9;c-5.644-19.967-1.554-41.397,7.146-51.374c14.393-16.104,49.697-46.751,49.697-46.751L420,393c0,0-51.819,105.654-2.979,165&#10;&#9;&#9;&#9;&#9;&#9;&#9;&#9;c144.287,175.32,255.243,203.351,260.018,195.104C654.602,737.833,564.682,641.066,556,602z"/>
              </g>
            </g>
            <g id="Shape_68">
              <g>
                <path fill-rule="evenodd" clip-rule="evenodd" fill="#FFC4A8" d="M713.261,724.71c-0.138-1.652-17.362-2.604-17.239-0.112&#10;&#9;&#9;&#9;&#9;&#9;&#9;&#9;c1.362,8.138,5.664,12.83,9.254,12.83C710.155,734.812,716.229,724.71,713.261,724.71z"/>
              </g>
            </g>
            <g id="Shape_69">
              <g>
                <path fill-rule="evenodd" clip-rule="evenodd" fill="#FFC4A8" d="M907.382,441.542c0,0-15.132,31.042-21.363,50.226&#10;&#9;&#9;&#9;&#9;&#9;&#9;&#9;c-4.872,19.116-7.394,39.738-7.769,52.482s7.019,17.984,7.019,17.984l55.47-99.328L907.382,441.542z"/>
              </g>
            </g>
            <g id="Shape_70">
              <g>
                <path fill-rule="evenodd" clip-rule="evenodd" fill="#FFC4A8" d="M728.875,453l-41.552-119.475l-51.924-27.839l-66.912,82.98&#10;&#9;&#9;&#9;&#9;&#9;&#9;&#9;c0,0-4.282,59.959-38.007,101.182c35.865-25.162,50.854-63.707,50.854-63.707s28.906-26.232,32.653-26.232&#10;&#9;&#9;&#9;&#9;&#9;&#9;&#9;s-5.888,26.768-16.059,66.384c46.035-41.758,41.753-48.717,56.206-96.899c17.13,18.737,14.453,118.313,14.453,118.313&#10;&#9;&#9;&#9;&#9;&#9;&#9;&#9;s8.029-27.303,12.848-97.435C688.395,429.889,730,488,745.25,510.75C734.375,474.5,728.875,453,728.875,453z"/>
              </g>
            </g>
            <g id="Shape_71">
              <g>
                <path fill-rule="evenodd" clip-rule="evenodd" fill="#FBC5A1" d="M866.363,435.759l-35.683-40.577L711.5,391.746&#10;&#9;&#9;&#9;&#9;&#9;&#9;&#9;c0,0,34.937,56.78,62.146,87.018c-15.117-32.254-33.257-63.835-33.257-63.835s32.921,39.645,76.256,49.052&#10;&#9;&#9;&#9;&#9;&#9;&#9;&#9;c10.177-10.583,15.117-13.774,15.117-13.774s8.397-8.399,15.452-8.735c6.719,4.703,23.516,12.767,42.999,25.198&#10;&#9;&#9;&#9;&#9;&#9;&#9;&#9;C877.113,450.878,866.363,435.759,866.363,435.759z"/>
              </g>
            </g>
            <g id="Shape_191">
              <g>
                <polygon fill-rule="evenodd" clip-rule="evenodd" fill="#FBC5A1" points="831.415,380.322 816.529,387.324 897.963,460.851 &#10;&#9;&#9;&#9;&#9;&#9;&#9;&#9;902.779,450.784 &#9;&#9;&#9;&#9;&#9;&#9;"/>
              </g>
            </g>
            <g id="Shape_72">
              <g>
                <path fill-rule="evenodd" clip-rule="evenodd" fill="#FBC5A1" d="M851.246,439.455l-57.107,32.925l-37.076,15.37&#10;&#9;&#9;&#9;&#9;&#9;&#9;&#9;c0,0-5.361,4.108-1.221,9.156c4.367,4.032,10.078,11.424,16.797,11.088c5.036-2.65,11.733-5.994,13.773-7.728&#10;&#9;&#9;&#9;&#9;&#9;&#9;&#9;c4.213-3.579,17.804-24.862,17.804-24.862l26.875-8.735l32.921-21.167L851.246,439.455z"/>
              </g>
            </g>
            <g id="Shape_73">
              <g>
                <path fill-rule="evenodd" clip-rule="evenodd" fill="#FBC5A1" d="M659.431,484.476c-25.621-2.512-70.791-21.007-99.1-5.712&#10;&#9;&#9;&#9;&#9;&#9;&#9;&#9;c7.055,5.376,16.461,5.376,21.835,9.743c15.453,2.688,54.211,8.628,57.78,11.087c21.637,14.906,31.913,17.471,35.944,17.471&#10;&#9;&#9;&#9;&#9;&#9;&#9;&#9;c8.734-4.703,23.18-11.423,26.875-17.807C709.484,496.57,667.828,486.827,659.431,484.476z"/>
              </g>
            </g>
            <g id="Nose">
              <g>
                <path fill-rule="evenodd" clip-rule="evenodd" fill="#FFC4A8" d="M761.795,604.537c-17.386-12.31-21.706-35.256-26.834-36.81&#10;&#9;&#9;&#9;&#9;&#9;&#9;&#9;c-3.063-0.835-3.005,6.868-3.369,10.06c-3.513,24.214,2.761,29.057,3.639,34.953c-0.305,6.393-4.266,11.542-6.398,14.553&#10;&#9;&#9;&#9;&#9;&#9;&#9;&#9;C725.867,644.146,767.641,611.497,761.795,604.537z"/>
              </g>
            </g>
          </g>
          <g id="Mouth_1_">
            <g id="Shape_11">
              <g>
                <path fill-rule="evenodd" clip-rule="evenodd" fill="#FC8392" d="M708.415,644.798c-13.483,0.749-36.979-1.705-39.462-0.239&#10;&#9;&#9;&#9;&#9;&#9;&#9;&#9;c-2.966,2.967-2.853,19.834,7.414,39.94c-3.378-6.616,13.105,31.33,31.331,31.33c1.063,0,4.118,1.993,18.894-32.286&#10;&#9;&#9;&#9;&#9;&#9;&#9;&#9;c8.602-19.956,13.346-34.045,22.003-44.484C730.662,643.145,717.994,644.266,708.415,644.798z"/>
              </g>
            </g>
            <g id="Shape_11_copy_2">
              <g>
                <path fill-rule="evenodd" clip-rule="evenodd" d="M748.595,639.059c-11.813,2.691-21.341,4.097-29.206,4.895&#10;&#9;&#9;&#9;&#9;&#9;&#9;&#9;c11.9,3.87,14.063,15.207,12.586,25.599C736.805,658.066,742.592,646.297,748.595,639.059z"/>
              </g>
            </g>
          </g>
        </g>
        <g id="Eyes_1_">
          <g id="Base_3_">
            <g id="Shape_119">
              <g>
                <path fill-rule="evenodd" clip-rule="evenodd" fill="#FFFFFD" d="M646.65,504.843c-1.269-3.806-8.035-6.766-8.035-6.766&#10;&#9;&#9;&#9;&#9;&#9;&#9;&#9;l-24.953-9.302l-19.454-2.114l-27.067,8.456l-17.763,14.376l20.789,27.257l34.615,1.918l36.371-4.229&#10;&#9;&#9;&#9;&#9;&#9;&#9;&#9;C641.152,534.439,647.496,520.063,646.65,504.843z"/>
              </g>
            </g>
            <g id="Shape_120">
              <g>
                <path fill-rule="evenodd" clip-rule="evenodd" fill="#FFFFFD" d="M832.736,467.635l-21.568,3.805&#10;&#9;&#9;&#9;&#9;&#9;&#9;&#9;c0,0-19.878,14.799-22.838,24.101c-2.115,19.45,2.96,27.061,7.189,27.061c6.344,1.269,30.027-1.269,30.027-1.269l8.036-2.537&#10;&#9;&#9;&#9;&#9;&#9;&#9;&#9;l18.186-25.791l1.269-20.296L832.736,467.635z"/>
              </g>
            </g>
          </g>
          <g id="Shade__x28_light_x29__1_">
            <g id="Shape_121">
              <g>
                <path fill-rule="evenodd" clip-rule="evenodd" fill="#E6E6EE" d="M633.117,495.963c-10.15-2.536-15.648-6.765-27.913-7.188&#10;&#9;&#9;&#9;&#9;&#9;&#9;&#9;s-18.609,0.423-27.49,2.96c-8.882,2.537-30.027,17.335-30.027,17.335s2.537,3.383,7.189,7.611&#10;&#9;&#9;&#9;&#9;&#9;&#9;&#9;c40.601-26.638,59.209-9.726,83.315-5.497c5.921-1.691,8.975-6.768,8.975-6.768S643.267,498.5,633.117,495.963z"/>
              </g>
            </g>
            <g id="Shape_122">
              <g>
                <path fill-rule="evenodd" clip-rule="evenodd" fill="#E6E6EE" d="M828.931,468.058l-11.842,1.691l-19.032,11.839&#10;&#9;&#9;&#9;&#9;&#9;&#9;&#9;l-9.727,11.839c0,0-0.173,0.105-0.173,5.18c24.529-16.311,51.347-18.71,51.347-18.71L828.931,468.058z"/>
              </g>
            </g>
          </g>
          <g id="Iris_1_">
            <g id="Shape_123">
              <g>
                <polygon fill-rule="evenodd" clip-rule="evenodd" fill="#405CC9" points="624.794,502.058 610.254,496.605 591.623,512.508 &#10;&#9;&#9;&#9;&#9;&#9;&#9;&#9;595.259,533.862 596.621,538.859 611.162,538.859 631.61,535.225 637.063,518.414 637.518,505.238 &#9;&#9;&#9;&#9;&#9;&#9;"/>
              </g>
            </g>
            <g id="Shape_124">
              <g>
                <polygon fill-rule="evenodd" clip-rule="evenodd" fill="#405CC9" points="825.637,481.611 815.186,494.333 815.641,509.327 &#10;&#9;&#9;&#9;&#9;&#9;&#9;&#9;820.639,521.595 827.909,521.141 834.271,519.322 844.625,503.438 848.357,487.063 &#9;&#9;&#9;&#9;&#9;&#9;"/>
              </g>
            </g>
          </g>
          <g id="Shade__x28_iris_x29__1_">
            <g id="Shape_144">
              <g>
                <path fill-rule="evenodd" clip-rule="evenodd" fill="#162F71" d="M829.32,520.771c0.029,0.012,0.057,0.028,0.094,0.028&#10;&#9;&#9;&#9;&#9;&#9;&#9;&#9;C829.984,520.8,829.818,520.788,829.32,520.771z M825.514,520.678c0,0,2.709,0.058,3.807,0.094&#10;&#9;&#9;&#9;&#9;&#9;&#9;&#9;c-1.424-0.592,5.814-15.129,5.814-17.453C836.767,499.166,825.514,520.678,825.514,520.678z"/>
              </g>
            </g>
            <g id="Shape_143">
              <g>
                <path fill-rule="evenodd" clip-rule="evenodd" fill="#162F71" d="M830.393,497.188c0-0.89-12.8,17.763-12.8,17.763&#10;&#9;&#9;&#9;&#9;&#9;&#9;&#9;l1.584,4.752C819.177,519.703,833.654,496.596,830.393,497.188z"/>
              </g>
            </g>
            <g id="Shape_129">
              <g>
                <polygon fill-rule="evenodd" clip-rule="evenodd" fill="#162F71" points="615.609,516.345 597.167,532.417 598,536.5 &#10;&#9;&#9;&#9;&#9;&#9;&#9;&#9;616.747,518.905 &#9;&#9;&#9;&#9;&#9;&#9;"/>
              </g>
            </g>
            <g id="Shape_134">
              <g>
                <path fill-rule="evenodd" clip-rule="evenodd" fill="#162F71" d="M601.272,506.234c0,0-11.348,0.658-9.538,7.401&#10;&#9;&#9;&#9;&#9;&#9;&#9;&#9;c1.809,6.743,19.077,6.249,24.669-7.566C624.298,495.544,601.272,506.234,601.272,506.234z"/>
              </g>
            </g>
            <g id="Shape_135">
              <g>
                <path fill-rule="evenodd" clip-rule="evenodd" fill="#162F71" d="M607.25,539.125c-9.25-1.75-13.049-18.582-13.214-30.26&#10;&#9;&#9;&#9;&#9;&#9;&#9;&#9;c-0.329-3.618-2.796-0.328-2.796-0.328l4.44,30.098C595.681,538.635,610.868,539.618,607.25,539.125z"/>
              </g>
            </g>
            <g id="Shape_136">
              <g>
                <path fill-rule="evenodd" clip-rule="evenodd" fill="#162F71" d="M633.667,509c2.833,9-3,25.625-14,28&#10;&#9;&#9;&#9;&#9;&#9;&#9;&#9;c2.631,0.822,11.538-1.161,11.538-1.161l4.44-9.046l2.302-11.184C637.947,515.609,632.793,506.225,633.667,509z"/>
              </g>
            </g>
            <g id="Shape_130">
              <g>
                <path fill-rule="evenodd" clip-rule="evenodd" fill="#162F71" d="M632.197,504.841c-0.328-0.493-23.131,33.979-23.131,33.979&#10;&#9;&#9;&#9;&#9;&#9;&#9;&#9;h5.974l20.42-32.348C635.46,506.472,632.526,505.334,632.197,504.841z"/>
              </g>
            </g>
            <g id="Shape_140">
              <g>
                <path fill-rule="evenodd" clip-rule="evenodd" fill="#162F71" d="M831.123,520.183c0.152-0.022,0.317-0.075,0.488-0.143&#10;&#9;&#9;&#9;&#9;&#9;&#9;&#9;C830.07,520.302,829.037,520.489,831.123,520.183z M847.331,498.736c-1.067-0.267-2.063-3.883-2.6-6.348&#10;&#9;&#9;&#9;&#9;&#9;&#9;&#9;c1.023,10.299-8.815,25.949-13.12,27.652c1.52-0.258,3.533-0.589,3.533-0.589l4.996-7.799&#10;&#9;&#9;&#9;&#9;&#9;&#9;&#9;C840.141,511.652,849.28,499.224,847.331,498.736z M844.731,492.388c-0.041-0.408-0.093-0.811-0.169-1.201&#10;&#9;&#9;&#9;&#9;&#9;&#9;&#9;C844.156,489.097,844.287,490.349,844.731,492.388z"/>
              </g>
            </g>
            <g id="Shape_141">
              <g>
                <path fill-rule="evenodd" clip-rule="evenodd" fill="#162F71" d="M820.883,484.854c0,0-6.337,7.555-5.728,9.748&#10;&#9;&#9;&#9;&#9;&#9;&#9;&#9;s10.968,1.95,16.574-11.698C837.335,469.256,820.883,484.854,820.883,484.854z"/>
              </g>
            </g>
            <g id="Shape_142">
              <g>
                <path fill-rule="evenodd" clip-rule="evenodd" fill="#162F71" d="M843.21,485.404l-4.085,16.346c0,0,7.006-10.391,7.25-11&#10;&#9;&#9;&#9;&#9;&#9;&#9;&#9;C846.618,490.141,843.21,485.404,843.21,485.404z"/>
              </g>
            </g>
            <path fill-rule="evenodd" clip-rule="evenodd" fill="#162F71" d="M816.25,504.125c3.125,7.25,3.5,15.25,9.75,15.125&#10;&#9;&#9;&#9;&#9;&#9;s10.875-2.875,11.75-5s-0.375,2.625-0.375,2.625l-4,3.375l-7,1.75l-6.25,0.875C820.125,522.875,816.375,508.875,816.25,504.125z&#10;&#9;&#9;&#9;&#9;&#9;"/>
          </g>
          <g id="Pupil_1_">
            <g id="Shape_125">
              <g>
                <ellipse fill-rule="evenodd" clip-rule="evenodd" cx="620.636" cy="512.691" rx="8.723" ry="14.301"/>
              </g>
            </g>
            <g id="Shape_126">
              <g>
                <path fill-rule="evenodd" clip-rule="evenodd" d="M834.78,474.71c-4.084-0.015-7.396,7.084-7.396,15.856&#10;&#9;&#9;&#9;&#9;&#9;&#9;&#9;c0,8.771,3.312,15.895,7.396,15.909c4.085,0.015,7.396-7.084,7.396-15.855C842.177,481.848,838.865,474.725,834.78,474.71z"/>
              </g>
            </g>
          </g>
          <g id="Shade__x28_dark_x29__1_">
            <g id="Shape_139">
              <g>
                <path fill-rule="evenodd" clip-rule="evenodd" d="M864.876,472.912l-13.893-1.463l-17.67-4.143l-7.19,0.487l7.8,17.791&#10;&#9;&#9;&#9;&#9;&#9;&#9;&#9;c0,0,3.29,17.181,6.702,10.357c5.484-12.186,4.997,6.823,4.997,6.823L864.876,472.912z"/>
              </g>
            </g>
            <g id="Shape_133">
              <g>
                <path fill-rule="evenodd" clip-rule="evenodd" d="M637.861,494.811l-29.47-7.017l7.232,16.624c0,0,9.171,18.59,13.118,10.695&#10;&#9;&#9;&#9;&#9;&#9;&#9;&#9;c0.493-6.743,4.093-11.168,8.785,3.429c0.92-5.201,1.737-11.857,1.737-11.857L637.861,494.811z"/>
              </g>
            </g>
          </g>
          <g id="Glow_3_">
            <g id="Shape_127">
              <g>
                <path fill-rule="evenodd" clip-rule="evenodd" fill="#FFFFFF" d="M612.316,489.527c-12.826-7.013-19.49,0.797-20.239,2.166&#10;&#9;&#9;&#9;&#9;&#9;&#9;&#9;c-2.479,12.159-0.444,16.578,2.639,23.232c5.928,3.241,14.357-0.759,18.827-8.935&#10;&#9;&#9;&#9;&#9;&#9;&#9;&#9;C618.014,497.815,618.244,492.769,612.316,489.527z"/>
              </g>
            </g>
            <g id="Shape_128">
              <g>
                <path fill-rule="evenodd" clip-rule="evenodd" fill="#FFFFFF" d="M830.07,469.137c-4.58-1.791-8.764,2.864-12.197,9.777&#10;&#9;&#9;&#9;&#9;&#9;&#9;&#9;c-2.973,5.985-3.126,12.006-0.13,13.554c2.995,1.548,7.911-2.012,10.979-7.949S833.211,470.365,830.07,469.137z"/>
              </g>
            </g>
          </g>
          <g id="Outlines_1_">
            <g id="Shape_131">
              <g>
                <path fill-rule="evenodd" clip-rule="evenodd" d="M599.172,538.25c-5.753-15.342-6.023-17.786-7.668-33.834&#10;&#9;&#9;&#9;&#9;&#9;&#9;&#9;c-0.307-2.997-0.357-5.166,0.143-10.207c-1.583,5.25-2.137,7.354-2.458,11.166c-0.864,10.245-0.681,20.41,4.295,32.022&#10;&#9;&#9;&#9;&#9;&#9;&#9;&#9;C598.888,538.534,592.629,537.966,599.172,538.25z"/>
              </g>
            </g>
            <g id="Shape_137">
              <g>
                <path fill-rule="evenodd" clip-rule="evenodd" d="M817.228,495.576c0,0,0.608-11.576-0.244-14.013&#10;&#9;&#9;&#9;&#9;&#9;&#9;&#9;c-7.556,19.375,0.244,38.871,0.487,40.942c1.828,0.122,1.828,0.122,4.266-0.243&#10;&#9;&#9;&#9;&#9;&#9;&#9;&#9;C815.033,511.174,817.228,495.576,817.228,495.576z"/>
              </g>
            </g>
            <g id="Shape_138">
              <g>
                <path fill-rule="evenodd" clip-rule="evenodd" d="M863.292,472.668c-4.82,5.249-22.823,42.036-29.922,47.879&#10;&#9;&#9;&#9;&#9;&#9;&#9;&#9;c0.178-0.001,0.453,0.01,1.04,0.01c8.53-5.483,15.843-30.707,34-48.376C865.485,472.425,866.948,472.181,863.292,472.668z&#10;&#9;&#9;&#9;&#9;&#9;&#9;&#9; M833.37,520.547c-0.414,0.003-0.29,0.071-2.25,0.497C831.621,521.574,832.394,521.351,833.37,520.547z"/>
              </g>
            </g>
            <g id="Shape_132">
              <g>
                <path fill-rule="evenodd" clip-rule="evenodd" d="M640.358,498.706c-2.561-2.275-1.707-1.707-3.413-1.138&#10;&#9;&#9;&#9;&#9;&#9;&#9;&#9;c3.569,11.007-3.13,34.423-7.682,39.26c3.13-0.569,0.285-0.285,3.13-0.285C635.807,531.422,640.928,515.491,640.358,498.706z"/>
              </g>
            </g>
          </g>
        </g>
      </g>
      <g id="Eyebrows_1_">
        <g id="Shape_86">
          <g>
            <path fill-rule="evenodd" clip-rule="evenodd" fill="#5C180F" d="M651.68,480.817c-7.483-1.778-14.12-2.208-17.484-3.193&#10;&#9;&#9;&#9;&#9;&#9;c-8.26-2.417-56.914-19.048-88.945-17.437c40.5,5.938,32.335,6.962,50.668,11.595c26.996,7.655,32.838,11.281,54.596,15.713&#10;&#9;&#9;&#9;&#9;&#9;c17.93,1.007,32.032,1.813,42.508-2.417C676.304,487.107,662.572,483.405,651.68,480.817z"/>
          </g>
        </g>
        <g id="Shape_85">
          <g>
            <path fill-rule="evenodd" clip-rule="evenodd" d="M656.321,481.186c-2.738-1.431-7.757-0.076-20.067-3.527&#10;&#9;&#9;&#9;&#9;&#9;c-20.751-4.634-52.179-19.138-104.356-17.929c31.024,0.604,63.46,7.856,64.669,8.259c26.696,7.776,48.363,14.455,56.049,13.561&#10;&#9;&#9;&#9;&#9;&#9;c8.196,2.557,14.555,4.839,22.923,5.778c18.132,0,13.095,0.403,22.563-3.223C677.334,487.449,659.359,482.773,656.321,481.186z"/>
          </g>
        </g>
        <g id="Shape_85_copy">
          <g>
            <path fill-rule="evenodd" clip-rule="evenodd" d="M630.274,481.183c-21.67-6.227-43.024-16.37-87.337-21.058&#10;&#9;&#9;&#9;&#9;&#9;c40.132,4.603,49.799,11.684,62.597,15.653c11.632,2.497,24.671,7.484,44.606,11.779c14.401,2.183,38.723,0.624,46.09-2.727&#10;&#9;&#9;&#9;&#9;&#9;C672.403,488.805,648.317,487.206,630.274,481.183z"/>
          </g>
        </g>
        <g id="Shape_87">
          <g>
            <path fill-rule="evenodd" clip-rule="evenodd" d="M756.229,487.814c-0.903,0-6.905,17.258-16.793,35.349&#10;&#9;&#9;&#9;&#9;&#9;c6.646-6.854,13.798-25.958,14.875-29.286C755.362,490.512,757.132,487.814,756.229,487.814z"/>
          </g>
        </g>
        <g id="Shape_88">
          <g>
            <path fill-rule="evenodd" clip-rule="evenodd" d="M821.058,450.8c-43.125,29.24-30.082,19.773-64.161,37.023&#10;&#9;&#9;&#9;&#9;&#9;c32.816-9.887,39.549-9.677,50.066-17.881c7.994-6.311,25.455-18.091,27.348-19.984c13.043-7.152,47.964-21.035,47.964-21.035&#10;&#9;&#9;&#9;&#9;&#9;S853.033,431.867,821.058,450.8z"/>
          </g>
        </g>
        <g id="Shape_88_copy">
          <g>
            <path fill-rule="evenodd" clip-rule="evenodd" fill="#5C180F" d="M773.936,481.512c25.244-9.676,19.774-6.311,31.345-13.883&#10;&#9;&#9;&#9;&#9;&#9;c7.994-6.312,26.086-17.039,27.979-18.933c10.418-5.713,13.728-7.938,20.746-11.067c-4.914,1.626-12.133,3.876-31.054,14.853&#10;&#9;&#9;&#9;&#9;&#9;C779.826,481.723,792.448,471.836,773.936,481.512z M854.005,437.629c2.242-0.742,4.005-1.354,6.181-2.607&#10;&#9;&#9;&#9;&#9;&#9;C857.772,435.996,855.772,436.841,854.005,437.629z"/>
          </g>
        </g>
      </g>
      <g id="Colors_B_1_">
        <g id="Hair_Colour_1_">
          <g id="Hair_1_">
            <g id="Shape_24">
              <g>
                <path fill-rule="evenodd" clip-rule="evenodd" fill="#D3683A" d="M989.781,533.219c4.762-44.014,10.292-84.626,15.909-111.29&#10;&#9;&#9;&#9;&#9;&#9;&#9;&#9;c6.028-28.616,1.872-101.585,1.872-101.585s13.212,14.499,28.469,44.969c-1.858-54.368-18.032-65.366-13.656-63.313&#10;&#9;&#9;&#9;&#9;&#9;&#9;&#9;c-0.583-12.24-13.75-28.875-22.514-37.304c-0.075-0.906-2.424-23.446-2.424-23.446s3.174,0.831,1.625-1&#10;&#9;&#9;&#9;&#9;&#9;&#9;&#9;c-1.653-1.953,2.877,3.715-2.283-2.781c-6.809-49.845-40.629-116.366-53.475-131.711c-1.821-2.175-3.15-5.708-3.992-5.633&#10;&#9;&#9;&#9;&#9;&#9;&#9;&#9;c-1.361-2.646-3.148-1.612-5.146-1.88c-4.13-0.555-9.459,3.526-15.321,10.361l0.061-32.876l-72.386,0.114&#10;&#9;&#9;&#9;&#9;&#9;&#9;&#9;C827.788,55.197,793.636,56.584,787.5,56c-12.24-1.166-55.218-8.879-120.5,20.125l0,0l-1.653,0.002&#10;&#9;&#9;&#9;&#9;&#9;&#9;&#9;c-31.909-12.433-86.772-17.536-133.16-0.878c-13.406,0.583-162.813,72.25-162.813,72.25s-20.5,24.5-31.575,80.388&#10;&#9;&#9;&#9;&#9;&#9;&#9;&#9;c-7.485,37.77-14.268,90.723-9.133,163.779c2.974,31.858,1.036,54.606,13.647,129.932&#10;&#9;&#9;&#9;&#9;&#9;&#9;&#9;c11.283,50.107,10.846,118.704-15.053,188.396c18.167-6.488,46.156-11.36,77.117-12.691&#10;&#9;&#9;&#9;&#9;&#9;&#9;&#9;c30.863-1.328,19.905-127.256,19.905-127.256l-10.951-129.416l29.868-28.206l10.951,48.78l52.435,2.323l22.235-10.951&#10;&#9;&#9;&#9;&#9;&#9;&#9;&#9;l62.39-68.358c0,0,0.664,6.637-9.292,75.659c37.081-44.19,41.915-78.711,41.915-78.711s4.337,34.406,9.979,32.083&#10;&#9;&#9;&#9;&#9;&#9;&#9;&#9;C642.772,385.707,642,338,642,338l12.266,2.749l7.922-13.249l60.442,81.275l10.01-30.415l175.556,23.235&#10;&#9;&#9;&#9;&#9;&#9;&#9;&#9;c0,0,11.117,74.154,8.906,77.86s-2.986,7.964-4.978,10.619c-1.991,2.654-0.332,6.637-3.318,14.932&#10;&#9;&#9;&#9;&#9;&#9;&#9;&#9;c-2.987,8.297-12.943,26.216-17.258,29.202c-4.313,2.986-5.973,0.995-8.96,4.313c-9.956,27.874-3.982,52.099-47.456,106.52&#10;&#9;&#9;&#9;&#9;&#9;&#9;&#9;c-1.991,1.991-0.996,17.919-0.996,17.919s-3.032,21.935,4.269,23.594c7.302,1.659,26.149,10.743,26.149,10.743&#10;&#9;&#9;&#9;&#9;&#9;&#9;&#9;s48.152,0.664,55.454,0.332c6.637-1.659,27.396-6.412,27.396-6.412l4.833,7.759l59.074-5.567c0,0-24.466-37.596-25.025-47.736&#10;&#9;&#9;&#9;&#9;&#9;&#9;&#9;C984.281,609.375,983.331,592.843,989.781,533.219z"/>
              </g>
            </g>
          </g>
          <g id="Hair_Shade_1_">
            <g id="Shape_29">
              <g>
                <path fill-rule="evenodd" clip-rule="evenodd" fill="#5C180F" d="M623.333,346.083c3.015,48.49-0.2,71.947-11.44,126.665&#10;&#9;&#9;&#9;&#9;&#9;&#9;&#9;c11.675-18.949,18.021-43.571,23.077-67.993C635.955,385.303,628.25,358,623.333,346.083z"/>
              </g>
            </g>
            <g id="Shape_30">
              <g>
                <path fill-rule="evenodd" clip-rule="evenodd" fill="#5C180F" d="M512.851,454.753c21.609-31.154,46.234-88.689,43.722-86.428&#10;&#9;&#9;&#9;&#9;&#9;&#9;&#9;c-2.513,2.261-33.922,29.396-41.461,35.928c-8.292,6.783-44.905,30.137-62.495,45.965&#10;&#9;&#9;&#9;&#9;&#9;&#9;&#9;c4.389-22.714,26.312-70.838,26.312-70.838l-8.543-71.354l-40.204,35.677l0.251-19.346l36.436-78.891&#10;&#9;&#9;&#9;&#9;&#9;&#9;&#9;c0,0-15.206,17.746-22.242,25.283c-14.019,8.198-50.163,41.572-50.163,41.572s14.582-27.965,15.288-26.947&#10;&#9;&#9;&#9;&#9;&#9;&#9;&#9;c-9.625-13.875-27.061-53.727-27.061-53.727l2.513,21.356c0,0-3.267,2.261-8.795,6.029c3.218,53.091,6.031,58.037,7.79,64.067&#10;&#9;&#9;&#9;&#9;&#9;&#9;&#9;c-4.271,83.412,14.071,135.169,14.071,135.169s14.071,55.775,14.825,69.845c1.257,133.913-23.369,167.328-23.369,167.328&#10;&#9;&#9;&#9;&#9;&#9;&#9;&#9;l49.502,3.016l11.308-14.07l56.788,20.854l30.404-20.854l9.046,1.005l5.528-14.32l-6.784-13.818l8.178-14.927&#10;&#9;&#9;&#9;&#9;&#9;&#9;&#9;c0,0-3.776-4.611-5.345-6.51c-3.544-4.29-10.631-13.448-19.166-27.557c-12.313-20.351-15.579-33.415-19.852-42.46&#10;&#9;&#9;&#9;&#9;&#9;&#9;&#9;c-10.051,3.769-8.543,4.522-15.579,6.784c-11.832-9.29-13.568-13.567-38.444-28.391&#10;&#9;&#9;&#9;&#9;&#9;&#9;&#9;c-23.392-17.602-22.648-18.101-33.672-32.159c-4.522-11.809-1.256-29.897-1.256-29.897s2.329-4.364,3.766-7.793&#10;&#9;&#9;&#9;&#9;&#9;&#9;&#9;s-0.75-13.814-0.75-13.814s-1.515-10.552-0.51-16.833c1.006-6.281,7.797-15.829,10.561-15.829&#10;&#9;&#9;&#9;&#9;&#9;&#9;&#9;c4.553-4.869,2.513,3.518,2.01,5.779c-0.502,2.261-4.271,27.386-4.271,37.435c0,10.05-1.759,39.948,0.251,43.717&#10;&#9;&#9;&#9;&#9;&#9;&#9;&#9;c4.052,1.705,7.539-13.316,14.574-20.854c6.828-7.314,30.656-13.566,33.671-14.069c1.508,7.035,1.006,11.558,1.006,11.558&#10;&#9;&#9;&#9;&#9;&#9;&#9;&#9;s12.563,32.912,16.584,34.671c-3.77-15.325-8.396-50.73-8.396-50.73l28.617-15.968l-14.693,16.701&#10;&#9;&#9;&#9;&#9;&#9;&#9;&#9;c0,0,32.855-23.335,44.754-37.66c19.742-16.461,31.173-33.087,37.282-44.47c-1.666,11.104-4.428,25.952-20.725,70.572&#10;&#9;&#9;&#9;&#9;&#9;&#9;&#9;c-2.01,5.276-11.559,21.607-11.559,21.607s27.299-21.94,36.184-36.933c2.499-1.943,10.806-25.376,14.072-58.54&#10;&#9;&#9;&#9;&#9;&#9;&#9;&#9;c2.01-20.602,4.773-41.957,6.03-58.791C586.475,390.686,521.143,445.457,512.851,454.753z"/>
              </g>
            </g>
            <g id="Shape_31">
              <g>
                <path fill-rule="evenodd" clip-rule="evenodd" fill="#5C180F" d="M397.9,224.637c0,0,8.041,31.153,19.6,48.238&#10;&#9;&#9;&#9;&#9;&#9;&#9;&#9;c4.271-3.518,8.041-10.804,15.579-20.602C412.726,239.46,397.9,224.637,397.9,224.637z"/>
              </g>
            </g>
            <g id="Shape_32">
              <g>
                <path fill-rule="evenodd" clip-rule="evenodd" fill="#5C180F" d="M417.114,167.079c11.056,20.351,33.168,36.431,52.266,51.003&#10;&#9;&#9;&#9;&#9;&#9;&#9;&#9;c6.03-4.271,7.669-3.925,22.745-10.457C473.279,209.887,440.734,181.651,417.114,167.079z"/>
              </g>
            </g>
            <g id="Shape_33">
              <g>
                <path fill-rule="evenodd" clip-rule="evenodd" fill="#5C180F" d="M962.132,220.89c0,0-15.328-84.965-24.374-88.733&#10;&#9;&#9;&#9;&#9;&#9;&#9;&#9;c-5.779-3.769-10.302,1.508-10.302,1.508s0.502,20.351-1.508,32.159c-2.011,11.809-15.115,36.593-15.115,36.593&#10;&#9;&#9;&#9;&#9;&#9;&#9;&#9;s19.01,10.989,17,13.25C955.651,216.539,962.132,220.89,962.132,220.89z"/>
              </g>
            </g>
            <g id="Shape_25">
              <g>
                <path fill-rule="evenodd" clip-rule="evenodd" fill="#5C180F" d="M898.244,123.004c-6.305,12.277-22.898,27.874-50.442,47.12&#10;&#9;&#9;&#9;&#9;&#9;&#9;&#9;c17.454,7.125,9.755,3.72,28.671,13.343C876.674,183.732,903.887,128.313,898.244,123.004z"/>
              </g>
            </g>
            <g id="Shape_26">
              <g>
                <path fill-rule="evenodd" clip-rule="evenodd" fill="#5C180F" d="M918.82,135.613c-1.659-1.327-1.327-0.995-3.65-2.986&#10;&#9;&#9;&#9;&#9;&#9;&#9;&#9;c-1.328,5.31-4.646,22.564-28.541,55.748c4.646,2.323,1.992,1.328,5.311,3.318&#10;&#9;&#9;&#9;&#9;&#9;&#9;&#9;C918.417,161.622,920.147,141.587,918.82,135.613z"/>
              </g>
            </g>
            <g id="Shape_27">
              <g>
                <path fill-rule="evenodd" clip-rule="evenodd" fill="#5C180F" d="M884.728,452.268c0.285,0.395,0.563,0.785,0.833,1.172&#10;&#9;&#9;&#9;&#9;&#9;&#9;&#9;C885.427,453.147,885.25,452.834,884.728,452.268z M966.667,575.417c1.659-16.26,3.261-26.337,6.911-42.597&#10;&#9;&#9;&#9;&#9;&#9;&#9;&#9;c6.969-60.726,37.5-101.21-33.519-208.725c13.274,35.507,9.956,85.614-9.624,150.653&#10;&#9;&#9;&#9;&#9;&#9;&#9;&#9;c-2.987-24.888-10.951-63.38-26.217-87.272c-1.66,0-130.844,6.127-120.052,11.523c12.333,6.167,59.121,34.072,93.176,46.838&#10;&#9;&#9;&#9;&#9;&#9;&#9;&#9;c4.541,3.711,6.48,5.45,7.385,6.43c-17.278-23.965-59.857-61.973-53.567-56.931c2.323,0,68.08,50.211,68.744,58.507&#10;&#9;&#9;&#9;&#9;&#9;&#9;&#9;c-1.237,7.99-10.487,23.073-14.237,41.74c6.166-3,12.577-23.821,17.556-34.439c3.982-0.332,4.978,1.99,8.96,5.973&#10;&#9;&#9;&#9;&#9;&#9;&#9;&#9;c1.773,1.773,2.626,2.56,3.084,3.707c3.65,4.593,3.068,5.489,1.733,7.801c-5.642,1.327-7.804,17.693-9.131,23.003&#10;&#9;&#9;&#9;&#9;&#9;&#9;&#9;c-1.328,5.31-10.226,22.816-12.943,24.888c-15.176,11.567-7.644,8.211-16.093,8.651&#10;&#9;&#9;&#9;&#9;&#9;&#9;&#9;c-6.083,27.333-7.591,60.601-49.641,110.641c0.566,6.831,0.18,30.151,4.329,39.174c5.311,5.31,30.953,12.771,30.953,12.771&#10;&#9;&#9;&#9;&#9;&#9;&#9;&#9;s30.469,5.822,53.764,4.261c11.912-4.315,18.323-1.973,24.629-1.641c3.65,2.905,5.82,1.384,5.82,1.384&#10;&#9;&#9;&#9;&#9;&#9;&#9;&#9;s6.807-5.225,23.354-7.376c-9.292-19.578-30.654-103.156-18.375-220.626C963.954,487.027,961.417,558.625,966.667,575.417z&#10;&#9;&#9;&#9;&#9;&#9;&#9;&#9; M885.561,453.44c0.205,0.451,0.307,0.856,1.4,2.063C886.52,454.83,886.051,454.141,885.561,453.44z"/>
              </g>
            </g>
            <g id="Shape_28">
              <g>
                <path fill-rule="evenodd" clip-rule="evenodd" fill="#5C180F" d="M859.54,336.731&#10;&#9;&#9;&#9;&#9;&#9;&#9;&#9;C858.195,335.319,858.713,336.076,859.54,336.731L859.54,336.731z M828.667,393.417l81.01,31.348&#10;&#9;&#9;&#9;&#9;&#9;&#9;&#9;c0,0,4.643-15.315,0.465-25.526c-4.874-15.547-32.493-59.173-54.311-77.737c8.202,17.422,5.353,16.534,3.709,15.23&#10;&#9;&#9;&#9;&#9;&#9;&#9;&#9;c0.312,0.328,0.721,0.768,1.252,1.356c-8.783-2.595,8.719,19.129,11.912,25.118c4.392,7.386,4.712,10.739,9.354,16.308&#10;&#9;&#9;&#9;&#9;&#9;&#9;&#9;c-24.138-27.613-52.065-44.921-66.224-52.347c0.696,7.426,19.573,31.462,33.499,50.955&#10;&#9;&#9;&#9;&#9;&#9;&#9;&#9;c-28.315-17.172-46.528-27.351-70.666-32.455c6.963,12.994,12.874,21.549,12.874,21.549&#10;&#9;&#9;&#9;&#9;&#9;&#9;&#9;c-48.173-34.679-48.271-36.871-52.04-39.382c5.339,15.083,19.779,39.614,26.742,50.985&#10;&#9;&#9;&#9;&#9;&#9;&#9;&#9;c-20.425-11.139-50.364-35.969-70.325-62.887c9.052,30.631,21.817,57.317,22.978,63.118&#10;&#9;&#9;&#9;&#9;&#9;&#9;&#9;c1.161,5.802,2.785,17.636,1.856,22.741c-14.854-19.028-57.327-88.412-67.075-95.605c3.25,9.05,0.011,31.627,0.011,31.627&#10;&#9;&#9;&#9;&#9;&#9;&#9;&#9;s-12.775-40.445-16.489-52.279c4.304,27.27,4.534,56.204,4.302,67.342c3.018-7.657,2.715-11.046,3.875-14.063&#10;&#9;&#9;&#9;&#9;&#9;&#9;&#9;c3.018,0.232,7.375,4.938,8,7.125c1.75-3.125,5.125-11.625,9.063-14.938c4.125,4.063,14.776,45.543,16.169,53.665&#10;&#9;&#9;&#9;&#9;&#9;&#9;&#9;c6.499,58.013,6.831,75.428-1.856,110.46c7.688-31,6.539-22.021,10.539-41.688c1.401-9.809,1.853-30.387,1.445-49.124&#10;&#9;&#9;&#9;&#9;&#9;&#9;&#9;c-0.271-12.462-4.793-33.938-5.797-41.063c21.359,48.238,48.313,98.75,70.309,120.224c0.231-16.012-29.496-92.14-29.496-92.14&#10;&#9;&#9;&#9;&#9;&#9;&#9;&#9;s48.167,76.417,57,78.917c-23.333-38.583-39.029-68.336-41.25-74.167c3.325,5.139,57.867,56.603,107.127,71&#10;&#9;&#9;&#9;&#9;&#9;&#9;&#9;c-28.084-25.293-51.795-52.064-62.513-67.845c20.656,10.211,16.015,7.89,28.083,14.619&#10;&#9;&#9;&#9;&#9;&#9;&#9;&#9;C824.267,420.587,828.667,393.417,828.667,393.417z"/>
              </g>
            </g>
            <g id="Shape_54">
              <g>
                <path fill-rule="evenodd" clip-rule="evenodd" fill="#5C180F" d="M1003.186,377.981c-5.784-9.914-7.438-9.501-17.767-18.59&#10;&#9;&#9;&#9;&#9;&#9;&#9;&#9;c12.396,19.829,15.288,27.678,15.288,66.509C1002.359,397.81,1004.425,390.787,1003.186,377.981z"/>
              </g>
            </g>
          </g>
          <g id="Hair_Highlight_1_">
            <g id="Shape_17">
              <g>
                <path fill-rule="evenodd" clip-rule="evenodd" fill="#FFCF8D" d="M619.868,273.938c-8.445,23.862-14.32,28.268-20.563,39.648&#10;&#9;&#9;&#9;&#9;&#9;&#9;&#9;c-0.734-11.747-1.836-16.521-2.57-37.445c-9.18,69.751-12.484,75.625-16.891,96.551&#10;&#9;&#9;&#9;&#9;&#9;&#9;&#9;c18.359-24.597,37.086-66.447,37.086-67.549c3.305,20.925,3.672,26.064,3.305,42.585&#10;&#9;&#9;&#9;&#9;&#9;&#9;&#9;C627.579,330.841,624.274,287.521,619.868,273.938z"/>
              </g>
            </g>
            <g id="Shape_19">
              <g>
                <path fill-rule="evenodd" clip-rule="evenodd" fill="#FFCF8D" d="M395.2,614L379.6,639.6c0,0,6-84.399,3.601-100.399&#10;&#9;&#9;&#9;&#9;&#9;&#9;&#9;c-7.734,43.307-16,58-16,58s-3.601-98.4-18-147.2c1.75,24.855,5.805,53.013,6.259,87.415&#10;&#9;&#9;&#9;&#9;&#9;&#9;&#9;c-1.876,29.336-3.292,53.002-7.049,86.418c-4.413,25.048-11.268,52.686-21.577,83.418c6.4-0.399,4.367-2.851,16.367-4.851&#10;&#9;&#9;&#9;&#9;&#9;&#9;&#9;c7.2-18,9.6-46.4,14.8-66.4c8.4,34,4.4,54.4,4.4,54.4l18.399-37.2l-4.8,43.2L395.2,614z"/>
              </g>
            </g>
            <g id="Shape_20">
              <g>
                <path fill-rule="evenodd" clip-rule="evenodd" fill="#FFCF8D" d="M431.216,255.229&#10;&#9;&#9;&#9;&#9;&#9;&#9;&#9;c-13.989,19.817-24.768,31.083-37.591,57.896c28.561-38.47,67.375-89.125,85.13-97.231&#10;&#9;&#9;&#9;&#9;&#9;&#9;&#9;C453.5,226,442.29,237.743,431.216,255.229z"/>
              </g>
            </g>
            <g id="Shape_21">
              <g>
                <path fill-rule="evenodd" clip-rule="evenodd" fill="#FFCF8D" d="M574.007,299.472c-16.903,16.32-29.144,26.229-29.144,26.229&#10;&#9;&#9;&#9;&#9;&#9;&#9;&#9;s10.492-37.887,14.572-55.956c-34.39,20.983-79.854,72.859-79.854,72.859l17.486-62.368c0,0-61.202,47.797-62.951,50.711&#10;&#9;&#9;&#9;&#9;&#9;&#9;&#9;c20.984-68.197,55.956-103.752,55.956-103.752S422.875,255,403.224,398.561c28.562-47.213,58.871-85.683,61.785-85.1&#10;&#9;&#9;&#9;&#9;&#9;&#9;&#9;c-13.989,37.887-24.48,71.111-24.48,71.111l9.597-19.822c0,0-14.462,63.576-19.125,107.875&#10;&#9;&#9;&#9;&#9;&#9;&#9;&#9;c40.802-115.41,111.531-171.404,111.531-171.404s-16.903,55.373-21.566,79.271&#10;&#9;&#9;&#9;&#9;&#9;&#9;&#9;C554.772,324.535,538.451,343.771,574.007,299.472z"/>
              </g>
            </g>
            <g id="Shape_22">
              <g>
                <path fill-rule="evenodd" clip-rule="evenodd" fill="#FFCF8D" d="M809.49,311.712c18.651,8.743,64.116,43.716,64.116,43.716&#10;&#9;&#9;&#9;&#9;&#9;&#9;&#9;s-12.24-27.978-29.727-46.047c1.748,11.074,3.497,13.989,3.497,13.989s-73.442-48.962-79.854-47.214&#10;&#9;&#9;&#9;&#9;&#9;&#9;&#9;c12.823,17.486,22.149,36.722,22.149,36.722s-46.63-36.722-64.116-46.048c16.903,27.979,23.314,49.545,23.314,49.545&#10;&#9;&#9;&#9;&#9;&#9;&#9;&#9;s-5.828,1.749-68.779-62.368c29.727,69.363,50.128,94.427,50.128,94.427s-15.738-38.47-12.24-39.053&#10;&#9;&#9;&#9;&#9;&#9;&#9;&#9;c36.138,31.476,78.522,62.119,78.522,62.119s-33.642-49.879-34.225-62.702c76.357,64.116,87.391,69.536,87.391,69.536&#10;&#9;&#9;&#9;&#9;&#9;&#9;&#9;S817.067,333.278,809.49,311.712z"/>
              </g>
            </g>
            <g id="Shape_23">
              <g>
                <path fill-rule="evenodd" clip-rule="evenodd" fill="#FFCF8D" d="M962.204,275.573&#10;&#9;&#9;&#9;&#9;&#9;&#9;&#9;c-15.737-29.144-46.454-59.323-46.454-59.323s10.546-1.602,12.083-0.583c-41.204-27.292-67.633-39.765-91.53-46.759&#10;&#9;&#9;&#9;&#9;&#9;&#9;&#9;c12.24,7.577,25.646,19.817,25.646,19.817s-1.166,0.583-11.075,0.583c41.968,16.903,51.293,37.305,72.277,54.791&#10;&#9;&#9;&#9;&#9;&#9;&#9;&#9;c-45.465-12.241-74.608-15.155-84.518-12.241c40.219,25.064,75.774,57.122,75.774,57.122l-26.229-37.304&#10;&#9;&#9;&#9;&#9;&#9;&#9;&#9;C888.179,251.676,902.75,252.842,962.204,275.573z"/>
              </g>
            </g>
          </g>
        </g>
        <g id="Suit_1_">
          <g id="Shape_36">
            <g>
              <path fill-rule="evenodd" clip-rule="evenodd" fill="#DC0A09" d="M1225,955.855c-4.147-31.657-11.92-103.992-50.956-169.938&#10;&#9;&#9;&#9;&#9;&#9;&#9;c-0.484-0.819-2.549-2.934-3.043-3.751c-1.389-4.12-1.123-6.571-2.365-9.985c-9.479-26.061-14.995-32.758-21.136-38.182&#10;&#9;&#9;&#9;&#9;&#9;&#9;c-6.703-5.69-16.165-10.48-27.362-14.515c-4.142-1.492-7.239-1.693-11.804-2.985c-2.537-1.289-6.355-3.712-8.892-4.895&#10;&#9;&#9;&#9;&#9;&#9;&#9;c-58.707-27.374-116.746-26.65-151.255-14.668c1-2.969,0.462-6.133-1.594-6c-29.969,1.938-25.418,4.395-26.037,4.729&#10;&#9;&#9;&#9;&#9;&#9;&#9;S900,699.5,900,699.5l-62,110L728,835l-39.5,61L544,790l-33.5-62l-60.172-44.34L439.5,696c0,0-68.5-11-130,18&#10;&#9;&#9;&#9;&#9;&#9;&#9;c-53.829-1.278-84.004,53.278-87.5,78c-11.5,15-56,97.5-56,188c-6,11.5-32,44.5-32,44.5l118.5,6l48.5-149l95.5-3.5l-8.5,99&#10;&#9;&#9;&#9;&#9;&#9;&#9;l125,46l407,7.5l64-45l-5.5-96.5l86.5-27l53.5,54.5l15,108l139-8.5C1272.5,1016,1231.619,956.311,1225,955.855z"/>
            </g>
          </g>
          <g id="Shade__x28_red_x29__1_">
            <g id="Shape_117">
              <g>
                <path fill-rule="evenodd" clip-rule="evenodd" fill="#860701" d="M920.834,696.833c-23.476,0.313-49.469,0.605-53.266,0.382&#10;&#9;&#9;&#9;&#9;&#9;&#9;&#9;c-6.954-0.409-35.42-14.726-40.794-17.109c0.017,0.1,0.033,0.196,0.051,0.297c-1.288-0.772-1.17-0.794-0.051-0.297&#10;&#9;&#9;&#9;&#9;&#9;&#9;&#9;c-1.449-8.462-2.568-14.998-2.568-14.998l-19.443,14.695l-88.206,80.591l-14.701,10.903c0,0-9.414-5.454-19.594-13.344&#10;&#9;&#9;&#9;&#9;&#9;&#9;&#9;c-14.25-9.926-97.54-73.884-97.54-73.884l-11.382-10.429l-19.553,8.27c0,0-3.926,0.471-14.229,0.248&#10;&#9;&#9;&#9;&#9;&#9;&#9;&#9;c-7.979,5.668-15.418,9.793-25.637,17.921c-14.269-0.148-43.587-11.078-62.147-17.936c-5.226,5.051-14.612,14.095-7,16.864&#10;&#9;&#9;&#9;&#9;&#9;&#9;&#9;c12.451,18.378,39.725,46.569,61.325,56.08c3.18,1.155,14.727,60.851,20.418,63.916c5.692,3.064,19.599-4.592,25.958,1.596&#10;&#9;&#9;&#9;&#9;&#9;&#9;&#9;c12.804,10.903,87.258,102.396,120.453,109.033c22.763,1.423,43.629-33.184,59.753-59.257c6.165-8.06,20.392,0,20.392,0&#10;&#9;&#9;&#9;&#9;&#9;&#9;&#9;s76.646-47.569,95.775-59.442c-17.043,26.976,88.56-68.4,85.594-69.883C935.534,722.196,931.938,724.017,920.834,696.833z"/>
              </g>
            </g>
            <g id="Shape_169">
              <g>
                <path fill-rule="evenodd" clip-rule="evenodd" fill="#860701" d="M415,830.667c4.667-7,8.333-13,17-32.334&#10;&#9;&#9;&#9;&#9;&#9;&#9;&#9;c-25,1.334-59-4.666-85.333-6.666c-1.334-0.667-1.834-2.334-4.167-7.667c-1.667,8.333-19.167,47-35.5,65&#10;&#9;&#9;&#9;&#9;&#9;&#9;&#9;c2-2.333,6-6,19-16.667c-37.333,44-41.724,36.665-71.333,51.334c-14.333,13.666-20,135.333-20,135.333l58.333-2.667&#10;&#9;&#9;&#9;&#9;&#9;&#9;&#9;l30.333-123.666l42,15c0,0-2,118,2.667,106.333c40-57.667,73-91.333,73-91.333S443.667,851.333,415,830.667z"/>
              </g>
            </g>
            <g id="Shape_156">
              <g>
                <path fill-rule="evenodd" clip-rule="evenodd" fill="#860701" d="M313.072,768.611c-4.878,28.828-22.616,67.857-66.96,79.832&#10;&#9;&#9;&#9;&#9;&#9;&#9;&#9;c0.443,6.652,0,11.088,0.887,27.055c34.589,3.104,85.585-39.473,98.888-107.774&#10;&#9;&#9;&#9;&#9;&#9;&#9;&#9;C330.81,767.28,327.706,768.167,313.072,768.611z"/>
              </g>
            </g>
            <g id="Shape_160">
              <g>
                <path fill-rule="evenodd" clip-rule="evenodd" fill="#860701" d="M1137.667,996.333c-5.334-9.666,7.333-96-0.667-107&#10;&#9;&#9;&#9;&#9;&#9;&#9;&#9;c-14-12-32-7.666-70-46.666c12,6.666,10.667,3.666,16.333,7.333c-32-26-42-58-44.666-65&#10;&#9;&#9;&#9;&#9;&#9;&#9;&#9;c-9.334,9.333-26.667,18.333-43.334,21.667c-17.666-1-35-10.334-39.333-18.334S967.667,817,967.667,817&#10;&#9;&#9;&#9;&#9;&#9;&#9;&#9;s-46.667,47.333-48,65.667c45.666,64.666,56,109.666,56,109.666l18.666,28.334L1017,903.333l45.333-19.666l51.334,132&#10;&#9;&#9;&#9;&#9;&#9;&#9;&#9;l48.666,0.666C1162.333,1016.333,1145.667,1006.333,1137.667,996.333z"/>
              </g>
            </g>
            <g id="Shape_185">
              <g>
                <path fill-rule="evenodd" clip-rule="evenodd" fill="#860701" d="M1131.333,846.333c-48.666-17-59.333-60-65.333-69&#10;&#9;&#9;&#9;&#9;&#9;&#9;&#9;c-7.667-4.333-23.333,2.334-25.667,7.667c18.334,55,61,82,91.334,86.667C1133.666,868.333,1134,846.667,1131.333,846.333z"/>
              </g>
            </g>
          </g>
          <g id="Minor_1_">
            <g id="Shape_162">
              <g>
                <path fill-rule="evenodd" clip-rule="evenodd" fill="#FF938D" d="M1055.5,740.667c-7.982,0-14.453-0.609-15.168,7.629&#10;&#9;&#9;&#9;&#9;&#9;&#9;&#9;c0,3.625,7.899,6.563,15.882,6.563s14.453-2.938,14.453-6.563S1067.408,741.022,1055.5,740.667z"/>
              </g>
            </g>
            <g id="Shape_163">
              <g>
                <path fill-rule="evenodd" clip-rule="evenodd" fill="#FF938D" d="M424.667,711.667c-18.667-8.334-18.334-6-38.667-6.667&#10;&#9;&#9;&#9;&#9;&#9;&#9;&#9;s-26.667,2-39,5.333c-29.667,4.667-3.333,12-0.333,12c-6.315,6.207-6.677,8.819-5.228,9.96&#10;&#9;&#9;&#9;&#9;&#9;&#9;&#9;c4.391,5.954,3.086,3.029,4.599,6.105c0.676,9.936,26.587,11.141,47.629,12.602c18.147,0.293,29.333-3.333,40-10&#10;&#9;&#9;&#9;&#9;&#9;&#9;&#9;C444.333,734.333,443.333,720,424.667,711.667z"/>
              </g>
            </g>
            <g id="Shape_164">
              <g>
                <path fill-rule="evenodd" clip-rule="evenodd" fill="#FF938D" d="M335.667,732.667c-2.667-3-5-4.334-12.667-4&#10;&#9;&#9;&#9;&#9;&#9;&#9;&#9;c-7.667,0.333-7.333-1.334-16.333,1.333c-9,2.667-18.111,4.223-19.667,7.333c-9.104,7.858,4.993,6.456,6.833,5.001&#10;&#9;&#9;&#9;&#9;&#9;&#9;&#9;c6.333,4-3.083,8.333,18.5,4.333c13.334-2.75,19.334-1,23-5C339,737.667,336.667,735.333,335.667,732.667z"/>
              </g>
            </g>
            <g id="Shape_161">
              <g>
                <path fill-rule="evenodd" clip-rule="evenodd" fill="#FF938D" d="M1022,748.333c-6.667-1.333-13.333-0.666-11.333-6.666&#10;&#9;&#9;&#9;&#9;&#9;&#9;&#9;c9.333-8.667,0-11-14.334-10.334c-20,1.667-18,5.334-27,13.667c-1.666,2.333-25,24.667,10.334,19.667&#10;&#9;&#9;&#9;&#9;&#9;&#9;&#9;c11.333-2.334,10.666-2.667,18-3c-0.667,2-5.334,10.666,21,0.666C1022.667,759,1042,752.667,1022,748.333z"/>
              </g>
            </g>
            <g id="Shape_118">
              <g>
                <path fill-rule="evenodd" clip-rule="evenodd" fill="#00145D" d="M702.829,761.941&#10;&#9;&#9;&#9;&#9;&#9;&#9;&#9;c-14.662,0.916-68.114-28.096-150.279-120.628c0,14.048,9.469,29.317,18.938,39.09c69.03,69.323,86.441,58.023,96.826,68.102&#10;&#9;&#9;&#9;&#9;&#9;&#9;&#9;c10.385,10.077,11.302,31.149,20.465,50.083c8.247,3.359,21.992,1.222,26.879,0.306c4.554-11.576,8.858-40.922,11.912-47.029&#10;&#9;&#9;&#9;&#9;&#9;&#9;&#9;c76.056-47.641,85.892-68.591,98.048-101.389C816.148,660.248,727.569,761.025,702.829,761.941z"/>
              </g>
            </g>
            <g id="Shape_116">
              <g>
                <path fill-rule="evenodd" clip-rule="evenodd" fill="#245C5D" d="M847.828,751.854c-2.722-18.777-4.66-53.547-6.837-59.807&#10;&#9;&#9;&#9;&#9;&#9;&#9;&#9;c-3.161-3.448-6.085-7.156-7.699-11.089c-1.443-3.516-1.73-7.288-1.987-9.985c-0.544-5.715,3.148-20.085,0.583-22.864&#10;&#9;&#9;&#9;&#9;&#9;&#9;&#9;s-13.563,8.48-14.554,25.684c1.996,2.347,7.605,4.01,7.482,8.471c-0.899,32.612-12.982,22.654,1.93,61.617&#10;&#9;&#9;&#9;&#9;&#9;&#9;&#9;c4.898,3.538-5.458,13.228,6.838,14.937c4.354,4.354,3.887,11.303,7.969,23.005c-3.327,29.896-75.951,67.292-97.722,80.456&#10;&#9;&#9;&#9;&#9;&#9;&#9;&#9;c0,2.278-11.455,46.39-18.803,52.104c-3.81,1.089-35.709,1.063-40.879-0.297c-5.171-1.905-17.195-37.624-22.639-46.605&#10;&#9;&#9;&#9;&#9;&#9;&#9;&#9;c-35.649-11.157-106.14-47.516-115.664-64.933c-4.898-4.354,6.221-20.771,9.487-26.214&#10;&#9;&#9;&#9;&#9;&#9;&#9;&#9;c12.921-1.821,25.863-37.253,17.862-44.984c-1.633-11.702-9.116-34.745-9.116-34.745s4.465-9.146,9.125-14.001&#10;&#9;&#9;&#9;&#9;&#9;&#9;&#9;c-26.397-29.937-12.789-38.099-22.944-40.074c-8.297,0.157-8.343,12.882-1.539,27.305c-0.07,2.405-0.465,8.013-0.989,15.244&#10;&#9;&#9;&#9;&#9;&#9;&#9;&#9;c-2.269,9.793-1.954,18.271-1.991,28.242c-0.996,15.325-1.686,18.26-1.255,36.554s-12.883,74.165-49.35,119.885&#10;&#9;&#9;&#9;&#9;&#9;&#9;&#9;c-9.524,11.702,81.495,36.169,111.431,50.864c60.414,29.392,74.827,50.643,88.706,50.643s27.484-30.89,106.403-67.901&#10;&#9;&#9;&#9;&#9;&#9;&#9;&#9;c73.749-25.581,86.955-46.117,88.316-51.832C866.588,822.14,852.183,789.682,847.828,751.854z"/>
              </g>
            </g>
            <g id="Shape_116_copy">
              <g>
                <path fill-rule="evenodd" clip-rule="evenodd" fill="#589C75" d="M869.313,820.456&#10;&#9;&#9;&#9;&#9;&#9;&#9;&#9;c-32.074,27.215-70.041,3.625-132.038,66.297c-3.797,12.116-8.544,24.749-12.247,27.629&#10;&#9;&#9;&#9;&#9;&#9;&#9;&#9;c-2.219,0.634-13.963,0.891-24.407,0.726c-5.516,6.872-17.33,10.029-25.622,14.174&#10;&#9;&#9;&#9;&#9;&#9;&#9;&#9;c-21.195,5.045-108.142-99.744-121.523-107.126c-1.919-2.93-11.577-1.823-28.239-1.898&#10;&#9;&#9;&#9;&#9;&#9;&#9;&#9;c-7.298,16.182-17.096,33.196-30.101,49.501c-9.524,11.702,81.495,36.169,111.431,50.864&#10;&#9;&#9;&#9;&#9;&#9;&#9;&#9;c60.414,29.392,74.827,50.643,88.706,50.643s27.484-30.89,106.403-67.901c73.749-25.581,86.955-46.117,88.316-51.832&#10;&#9;&#9;&#9;&#9;&#9;&#9;&#9;C882.049,841.557,875.143,831.228,869.313,820.456z"/>
              </g>
            </g>
            <g id="Shape_114">
              <g>
                <path fill-rule="evenodd" clip-rule="evenodd" fill="#F12F25" d="M997.68,1015.003&#10;&#9;&#9;&#9;&#9;&#9;&#9;&#9;c-31.919-37.272-56.796-66.072-130.297,0.569C850.859,1033.229,1002.237,1029.242,997.68,1015.003z"/>
              </g>
            </g>
            <g id="Shape_115">
              <g>
                <path fill-rule="evenodd" clip-rule="evenodd" fill="#F12F25" d="M361.809,1030.382&#10;&#9;&#9;&#9;&#9;&#9;&#9;&#9;c-4.559,9.683,166.375,19.365,168.084,6.835C500.264,1007.028,422.205,894.25,361.809,1030.382z"/>
              </g>
            </g>
            <g id="Shape_157">
              <g>
                <ellipse transform="matrix(0.4966 -0.868 0.868 0.4966 -547.5918 627.1688)" fill-rule="evenodd" clip-rule="evenodd" fill="#5C6F7D" cx="266.918" cy="785.691" rx="46.987" ry="25.789"/>
              </g>
            </g>
            <g id="Shape_158">
              <g>
                <ellipse transform="matrix(0.7552 -0.6555 0.6555 0.7552 -239.1948 924.3151)" fill-rule="evenodd" clip-rule="evenodd" fill="#5C6F7D" cx="1117.927" cy="782.405" rx="30.462" ry="49.196"/>
              </g>
            </g>
          </g>
          <g id="Dark_1_">
            <g id="Shape_184">
              <g>
                <path fill-rule="evenodd" clip-rule="evenodd" fill="#030E20" d="M1081.796,914.389&#10;&#9;&#9;&#9;&#9;&#9;&#9;&#9;c0.698,25.671,18.941,100.113,13.851,105.415c-5.09,5.303,22.154,3.134,23.258,1.141S1087.363,925.423,1081.796,914.389z"/>
              </g>
            </g>
          </g>
        </g>
        <g id="Head_thing_1_">
          <g id="Base_2_">
            <g id="Shape_34_copy">
              <g>
                <path fill-rule="evenodd" clip-rule="evenodd" fill="#DB110F" d="M392.992,56.03c-30.405,22.36-24.626,170.091-19.349,172.854&#10;&#9;&#9;&#9;&#9;&#9;&#9;&#9;c6.784-2.764,16.584-7.286,20.604-14.32c-3.518-16.582-3.518-39.194-2.262-41.958c3.519-1.759,26.385-10.05,31.912-14.823&#10;&#9;&#9;&#9;&#9;&#9;&#9;&#9;C424.903,142.206,470.375,98,531.5,73.75C526.921,63.657,411.335,40.201,392.992,56.03z"/>
              </g>
            </g>
            <g id="Shape_77">
              <g>
                <path fill-rule="evenodd" clip-rule="evenodd" fill="#DB110F" d="M921.162,35.18c-4.75-5.25-1.885-23.608-107.26,5.219&#10;&#9;&#9;&#9;&#9;&#9;&#9;&#9;C807.864,41.957,767.415,54.132,784,54.75c24.425,3.735,59.575,20.015,70,27.25c58,6,82.559,26.334,83.059,21.584&#10;&#9;&#9;&#9;&#9;&#9;&#9;&#9;C936.422,80.89,931.474,42.491,921.162,35.18z"/>
              </g>
            </g>
          </g>
          <g id="Shade_2_">
            <g id="Shape_78">
              <g>
                <path fill-rule="evenodd" clip-rule="evenodd" fill="#890200" d="M936.306,89.939c0,0-28.556-3.439-44.556-6.689&#10;&#9;&#9;&#9;&#9;&#9;&#9;&#9;S845.5,77.5,845.5,77.5L873.25,93l9.25-3.75l20.75,24.875c0,0,10.75,0.875,12.75,2.125c1.614,1.009,1.807,17.998,1.807,17.998&#10;&#9;&#9;&#9;&#9;&#9;&#9;&#9;s4.943,0.252,7.693,0.002c1,6,10.583,29.583,10.583,27.917c0,4.574,0.623-8.386,1.331-18.526&#10;&#9;&#9;&#9;&#9;&#9;&#9;&#9;C937.414,138.891,936.306,89.939,936.306,89.939z"/>
              </g>
            </g>
            <g id="Shape_34">
              <g>
                <path fill-rule="evenodd" clip-rule="evenodd" fill="#890200" d="M526.5,75.75c-6.587,1.238-23.5,10.25-52.125,27.125&#10;&#9;&#9;&#9;&#9;&#9;&#9;&#9;c-13.75-0.75-61.169,18.692-89.313,15.63c-7.167,17.681-11.87,44.239-15.439,47.318c-1.005,6.03-1.257,60.298,4.021,63.062&#10;&#9;&#9;&#9;&#9;&#9;&#9;&#9;c6.784-2.764,15.731-7.26,21.731-12.885c-1.852-17.249-4.645-40.63-3.389-43.394c3.519-1.759,26.385-10.05,31.912-14.823&#10;&#9;&#9;&#9;&#9;&#9;&#9;&#9;c0.175-2.712,5.477-7.408,4.429-10.485C441.252,127.404,477.107,96.086,526.5,75.75z"/>
              </g>
            </g>
          </g>
          <g id="Glow_2_">
            <g id="Shape_35">
              <g>
                <path fill-rule="evenodd" clip-rule="evenodd" fill="#FBF0FF" d="M425.156,59.042c-15.959,0-37.942-3.015-38.193,7.789&#10;&#9;&#9;&#9;&#9;&#9;&#9;&#9;c0.251,9.547,20.727,6.783,36.686,6.783c15.96,0,32.917-6.27,32.917-9.045C457.068,59.784,441.115,59.042,425.156,59.042z"/>
              </g>
            </g>
            <g id="Shape_145">
              <g>
                <path fill-rule="evenodd" clip-rule="evenodd" fill="#FFFFFF" d="M841.333,38.232c0,0-35.332,1.609-35.178,6.646&#10;&#9;&#9;&#9;&#9;&#9;&#9;&#9;c0.153,5.035,16.689,8.703,36.935,8.191c20.244-0.512,36.531-5.01,36.377-10.045&#10;&#9;&#9;&#9;&#9;&#9;&#9;&#9;C879.313,37.988,841.333,38.232,841.333,38.232z"/>
              </g>
            </g>
          </g>
        </g>
      </g>
    </g>
    <g id="Outline__x28_most_of_it_x29__1_" transform="matrix(1, 0, 0, 1, -1874.309204, -27.907627)">
      <g id="Suit_Outline_1_">
        <g id="Part_3_1_">
          <g id="Shape_194">
            <g>
              <path fill-rule="evenodd" clip-rule="evenodd" d="M1046.333,724.333c-1.333,0-0.666-0.333-1.666,0&#10;&#9;&#9;&#9;&#9;&#9;&#9;c-38.204,58.294,34.229,152.045,103.163,149.778C1100.005,874.945,1007.357,798.355,1046.333,724.333z"/>
            </g>
          </g>
          <g id="Shape_197">
            <g>
              <polygon fill-rule="evenodd" clip-rule="evenodd" points="262,754.25 254.25,761.75 273,818.25 281.25,813 &#9;&#9;&#9;&#9;&#9;"/>
            </g>
          </g>
          <g id="Shape_198">
            <g>
              <path fill-rule="evenodd" clip-rule="evenodd" d="M293.68,741.561c-15.129-7.232-39.331,6.915-52.822,32.218&#10;&#9;&#9;&#9;&#9;&#9;&#9;c-15.742,26.803-12.416,52.428,2.713,59.661c15.129,7.232,39.33-6.915,52.822-32.218&#10;&#9;&#9;&#9;&#9;&#9;&#9;C309.635,769.919,310.809,749.044,293.68,741.561z M288.764,795.931c-12.302,21.553-31.908,34.467-43.789,28.845&#10;&#9;&#9;&#9;&#9;&#9;&#9;c-10.382-5.123-10.541-27.403,1.762-48.956c12.302-21.553,33.657-33.467,42.789-29.095&#10;&#9;&#9;&#9;&#9;&#9;&#9;C301.407,752.348,301.066,774.378,288.764,795.931z"/>
            </g>
          </g>
          <g id="Shape_199">
            <g>
              <path fill-rule="evenodd" clip-rule="evenodd" d="M305.25,846.75c-13.75,13.25-31,29.25-65,28.25c-1.25,1-1.25,1.25-1.25,1.25&#10;&#9;&#9;&#9;&#9;&#9;&#9;s17.75,3.75,42.75-7.75c23.75-13,45.5-38.75,55.75-67.25c7.75-22.25,6.75-23.25,8.75-34C338.5,802,319,833.5,305.25,846.75z"/>
            </g>
          </g>
          <g id="Shape_200">
            <g>
              <path fill-rule="evenodd" clip-rule="evenodd" d="M293.533,724.446c-68.75,8.5-98.853,132.196-54.014,152.123&#10;&#9;&#9;&#9;&#9;&#9;&#9;c1.25-0.75-0.899,0.002,0.851-0.998C195.087,850.075,232.617,734.44,293.533,724.446z"/>
            </g>
          </g>
          <g id="Shape_182">
            <g>
              <path fill-rule="evenodd" clip-rule="evenodd" d="M369.667,952.333c-1.667-12.333,0.333-46-1.334-49.666&#10;&#9;&#9;&#9;&#9;&#9;&#9;C366.667,899,331,882.667,321,887s-27.333,86-30.333,109s1.667,29,1.667,29l57,4.333c0,0,28.53-23.444,28.864-33.444&#10;&#9;&#9;&#9;&#9;&#9;&#9;C377.53,966.555,371.333,964.667,369.667,952.333z"/>
            </g>
          </g>
          <g id="Shape_183">
            <g>
              <path fill-rule="evenodd" clip-rule="evenodd" d="M1062,876.333c-8.333,0.667-47.667,12.667-52.333,25&#10;&#9;&#9;&#9;&#9;&#9;&#9;c2,12-4.833,40.104-17.334,74c-4,13.334,0,50.667,0,50.667s131.667-0.333,130-4.333&#10;&#9;&#9;&#9;&#9;&#9;&#9;C1120.667,1017.667,1078,876.333,1062,876.333z"/>
            </g>
          </g>
          <g id="Shape_195">
            <g>
              <path fill-rule="evenodd" clip-rule="evenodd" d="M1137.7,754.211c-1.396-1.299-2.826-2.519-4.287-3.65&#10;&#9;&#9;&#9;&#9;&#9;&#9;C1134.898,751.761,1136.318,752.98,1137.7,754.211z M1137.7,754.211c28.196,26.234,42.684,85.114,21.227,112.691&#10;&#9;&#9;&#9;&#9;&#9;&#9;c-1.187,3.26-0.098,0.252-1.398,5.13C1168.936,868.23,1189.979,800.776,1137.7,754.211z"/>
            </g>
          </g>
          <g id="Shape_192">
            <g>
              <polygon fill-rule="evenodd" clip-rule="evenodd" points="1124.333,750.333 1118.667,822.333 1126.667,826 1132.667,757.333 &#10;&#9;&#9;&#9;&#9;&#9;&#9;&#9;&#9;&#9;&#9;&#9;"/>
            </g>
          </g>
          <g id="Shape_193">
            <g>
              <path fill-rule="evenodd" clip-rule="evenodd" d="M1146.285,763.078c-16.467-20.853-45.992-35.937-62.8-25.066&#10;&#9;&#9;&#9;&#9;&#9;&#9;c-15.927,11.156-12.321,39.938,5.999,64.287c18.319,24.349,39.782,34.36,62.01,23.887&#10;&#9;&#9;&#9;&#9;&#9;&#9;C1167.608,812.03,1167.206,787.435,1146.285,763.078z M1139.801,822.16c-13.74,3.89-32.326-6.663-45.568-27.237&#10;&#9;&#9;&#9;&#9;&#9;&#9;s-14.461-43.379-2.721-50.936c5.074-5.556,32.326,2.664,48.568,22.238C1159.989,789.133,1161.541,819.271,1139.801,822.16z"/>
            </g>
          </g>
          <g id="Shape_196">
            <g>
              <path fill-rule="evenodd" clip-rule="evenodd" d="M1048.407,723.477c-0.824,0.034-2.736,0.678-3.532,0.711&#10;&#9;&#9;&#9;&#9;&#9;&#9;c-0.813,1.464,0.152,1.659-0.335,2.96c0.655-0.024,1.983-1.511,2.733-1.545c17.483-0.798,59.808-3.591,91.355,30.212&#10;&#9;&#9;&#9;&#9;&#9;&#9;c4.096,4.104,8.035,6.991,11.75,12.315C1119.586,721.551,1076.065,722.35,1048.407,723.477z"/>
            </g>
          </g>
          <g id="Shape_187">
            <g>
              <path fill-rule="evenodd" clip-rule="evenodd" d="M842,784c-2-13.333-4.667-24.333-12-28c-0.49,0.035-2.091-0.938-2.438-0.938&#10;&#9;&#9;&#9;&#9;&#9;&#9;c-2.361-0.002-2.795,1.095-2.25,2.688c0.136,0.396-0.313,0.188,2.688,0.917c9.348,2.273,12.333,24,11.667,24.666&#10;&#9;&#9;&#9;&#9;&#9;&#9;c-2.334,15.667-17.25,33.458-96.917,78.792c-1.025,2.696,1.841-0.852,0.25,2.542C817,821.333,842.667,800.333,842,784z"/>
            </g>
          </g>
          <g id="Shape_186">
            <g>
              <path fill-rule="evenodd" clip-rule="evenodd" d="M1152,736.667c-20-18.334-30.667-18.334-46.667-21&#10;&#9;&#9;&#9;&#9;&#9;&#9;c32,9.333,51.334,14,66,67.666C1168,771,1170.333,762,1152,736.667z"/>
            </g>
          </g>
          <g id="Shape_188">
            <g>
              <path fill-rule="evenodd" clip-rule="evenodd" d="M742.564,862.599c0,0-12.854,47.284-17.904,50.039&#10;&#9;&#9;&#9;&#9;&#9;&#9;c-5.05,2.754-35.578,1.606-38.333,0.459c-2.754-1.147-23.643-43.842-26.627-48.662&#10;&#9;&#9;&#9;&#9;&#9;&#9;c-79.269-27.737-112.245-61.057-113.622-62.663c-1.378-13.313,11.477-25.479,11.477-25.479l-2.492-0.438&#10;&#9;&#9;&#9;&#9;&#9;&#9;c0,0-12.887,14.44-10.821,25.917c25.021,30.758,103.294,61.745,115,64.729c3.214,5.509,19.741,44.3,25.021,47.284&#10;&#9;&#9;&#9;&#9;&#9;&#9;s36.727,2.295,41.547,0.688s18.593-51.187,18.593-51.187L742.564,862.599z"/>
            </g>
          </g>
          <g id="Shape_189">
            <g>
              <path fill-rule="evenodd" clip-rule="evenodd" d="M564.9,696.644c0.229-2.524,9.182-13.313,9.182-13.313l-0.918-1.606&#10;&#9;&#9;&#9;&#9;&#9;&#9;c0,0-9.871,11.936-9.871,14.69c0,1.934,4.795,17.813,8.364,29.366c0.632,6.247,2.788,8.694,3.403,9.275&#10;&#9;&#9;&#9;&#9;&#9;&#9;c-0.517-3.619-1.213-7.832-1.997-11.524C569.412,712.291,564.765,698.131,564.9,696.644z M575.06,735.056&#10;&#9;&#9;&#9;&#9;&#9;&#9;c0.052,0.367,0.103,0.729,0.152,1.084c0.007-0.565,0.018-0.934,0.018-0.934S575.165,735.154,575.06,735.056z M575.212,736.14&#10;&#9;&#9;&#9;&#9;&#9;&#9;c-0.028,2.085-0.016,7.017,0.706,7.559C576.12,743.85,575.819,740.566,575.212,736.14z"/>
            </g>
          </g>
          <g id="Shape_201">
            <g>
              <path fill-rule="evenodd" clip-rule="evenodd" d="M339.667,730c-14.334-7-39.667-9.667-53.667-4&#10;&#9;&#9;&#9;&#9;&#9;&#9;c21.333-2.333,31.234-1.935,52.976,5.837c4.658,4.655,4.678,2.541,8.691,21.83C345.333,739.667,347.42,737.16,339.667,730z"/>
            </g>
          </g>
          <g id="Shape_190">
            <g>
              <path fill-rule="evenodd" clip-rule="evenodd" d="M252,736c-25.59,24.513-30.936,45.76-31.166,56.002&#10;&#9;&#9;&#9;&#9;&#9;&#9;c2.822-4.074-0.518,1.194,3.425-5.749c3.383-12.805,10.113-32.52,29.407-48.92c34.202-26.899,45.132-21.767,57.667-23.333&#10;&#9;&#9;&#9;&#9;&#9;&#9;C313,712.333,285,707,252,736z"/>
            </g>
          </g>
        </g>
        <g id="Part_2_1_">
          <g id="Shape_181">
            <g>
              <path fill-rule="evenodd" clip-rule="evenodd" d="M441.762,692.607c-1.885,2.639,0.377,0-2.262,3.393&#10;&#9;&#9;&#9;&#9;&#9;&#9;c18.925,44.299-1.206,113.405-76.103,209.046c-2.982,5.719,0.409,2.508,2.955,0.542&#10;&#9;&#9;&#9;&#9;&#9;&#9;C480.975,762.345,444.024,696,441.762,692.607z"/>
            </g>
          </g>
          <g id="Shape_171">
            <g>
              <path fill-rule="evenodd" clip-rule="evenodd" d="M716.223,797.251c-9.801,3.974-22.515,1.854-26.223,0.266&#10;&#9;&#9;&#9;&#9;&#9;&#9;c-8.226-14.908-9.219-36.8-20.406-48.974c5.416,6.043,4.601,13.334,19.082,50.298c5.827,2.118,17.481,2.384,27.547,0.265&#10;&#9;&#9;&#9;&#9;&#9;&#9;C716.487,797.781,717.547,794.073,716.223,797.251z"/>
            </g>
          </g>
          <g id="Shape_172">
            <g>
              <path fill-rule="evenodd" clip-rule="evenodd" d="M555.973,645.747c-0.783-1.114-0.48-0.695-1.059-1.589&#10;&#9;&#9;&#9;&#9;&#9;&#9;c-9.801,20.13,56.418,85.287,112.307,103.298C619.014,730.505,547.762,665.877,555.973,645.747z"/>
            </g>
          </g>
          <g id="Shape_173">
            <g>
              <path fill-rule="evenodd" clip-rule="evenodd" d="M539.25,681.25c-2.25,0.75-19,15.25-27.25,17.5&#10;&#9;&#9;&#9;&#9;&#9;&#9;c-11.75,0-56.5-17.75-60.5-17.25s-13.25,14.75-11,13.5s8.75-11.75,11.75-11.25s50.5,17.25,60.5,17.25&#10;&#9;&#9;&#9;&#9;&#9;&#9;c6-0.75,22.25-15.5,26.5-17.75s7,0,8.25-1.75C548.227,680.482,541.5,680.5,539.25,681.25z"/>
            </g>
          </g>
          <g id="Shape_174">
            <g>
              <path fill-rule="evenodd" clip-rule="evenodd" d="M293.447,720.89c-2.213,1.179-7.501,4.291-8.83,5.147&#10;&#9;&#9;&#9;&#9;&#9;&#9;c4.557-0.978,6.819-2.735,12.808-4.731c0.474-0.255,0.981-0.52,1.52-0.794c19.873-10.131,82.83-33.237,126.234-24.491&#10;&#9;&#9;&#9;&#9;&#9;&#9;c6.986,0.665,7.319,0.665,14.971,0.332C382.853,682.407,316.164,708.795,293.447,720.89z"/>
            </g>
          </g>
          <g id="Shape_175">
            <g>
              <path fill-rule="evenodd" clip-rule="evenodd" d="M219.459,790.947C173.894,846.797,163,981.5,163,981.5s-36,51-34,51&#10;&#9;&#9;&#9;&#9;&#9;&#9;c2.895,1.342,36.724-49.158,36.724-49.158S177.5,859,218,798.75c1.33-1.517,9.517-12.969,10.154-13.944&#10;&#9;&#9;&#9;&#9;&#9;&#9;c2.271-3.473,8.775-15.628,9.505-17.14C236.694,768.621,221.645,788.687,219.459,790.947z"/>
            </g>
          </g>
          <g id="Shape_176">
            <g>
              <path fill-rule="evenodd" clip-rule="evenodd" d="M354.623,1034.526c12.012-7.143,3.13-27.313,134.28-158.799&#10;&#9;&#9;&#9;&#9;&#9;&#9;c2.921-3.247,2.974-1.955,4.921-6.176C470.775,883.837,361.44,1007.255,354.623,1034.526z"/>
            </g>
          </g>
          <g id="Shape_177">
            <g>
              <path fill-rule="evenodd" clip-rule="evenodd" d="M547.001,681.127c-11.362,63.308,19.153,90.579-58.109,193.17&#10;&#9;&#9;&#9;&#9;&#9;&#9;c3.247-0.324,2.903,0.478,5.175-3.094c76.938-101.292,43.195-152.568,54.558-188.777&#10;&#9;&#9;&#9;&#9;&#9;&#9;C550.019,677.631,547.539,679.061,547.001,681.127z"/>
            </g>
          </g>
          <g id="Shape_179">
            <g>
              <path fill-rule="evenodd" clip-rule="evenodd" d="M546.746,642.475c-3.665,1.223-6.108,9.621-2.443,18.784&#10;&#9;&#9;&#9;&#9;&#9;&#9;c6.567,10.843,0.306,20.77,3.055,20.464c3.978-8.75,1.724-16.295-2.749-27.03c-2.496-12.626,9.257-12.408,10.306-11.694&#10;&#9;&#9;&#9;&#9;&#9;&#9;C552.795,640.515,550.367,641.269,546.746,642.475z"/>
            </g>
          </g>
          <g id="Shape_178">
            <g>
              <path fill-rule="evenodd" clip-rule="evenodd" d="M476.952,883.919l1.833,0.306c0,0,8.399-9.469,12.37-11.148&#10;&#9;&#9;&#9;&#9;&#9;&#9;c4.124-0.764,14.509-21.075,14.509-21.075L476.952,883.919z"/>
            </g>
          </g>
          <g id="Shape_170">
            <g>
              <path fill-rule="evenodd" clip-rule="evenodd" d="M824.938,739.125c-2.065-5.332-5.679-17.096-4.354-26.366&#10;&#9;&#9;&#9;&#9;&#9;&#9;c1.324-9.271,4.768-21.189,5.562-30.46c-2.384-5.032-9.006-9.535-9.006-9.535l-0.794,1.854c0,0,7.011,2.905,7.416,9.801&#10;&#9;&#9;&#9;&#9;&#9;&#9;c0.265,4.503-6.622,27.281-5.563,36.552s-2.119,21.719-2.119,21.719S830.881,754.472,824.938,739.125z"/>
            </g>
          </g>
          <g id="Shape_180">
            <g>
              <polygon fill-rule="evenodd" clip-rule="evenodd" points="818.417,664.583 815.083,675.25 817.25,674.333 818.917,665 &#9;&#9;&#9;&#9;&#9;"/>
            </g>
          </g>
        </g>
        <g id="Part_1_1_">
          <g id="Shape_168">
            <g>
              <path fill-rule="evenodd" clip-rule="evenodd" d="M434,963c-45.667-3.667-73,66-72,67.333c1,1.334,24.667-65,70-64.333&#10;&#9;&#9;&#9;&#9;&#9;&#9;c51.333,4.333,85.333,63,92,67.667C530.667,1038.333,478.667,963,434,963z"/>
            </g>
          </g>
          <g id="Shape_154">
            <g>
              <path fill-rule="evenodd" clip-rule="evenodd" d="M823.42,740.186c0,0-3.826-7.687-4.702-23.011&#10;&#9;&#9;&#9;&#9;&#9;&#9;c-1.751,4.378-30.646,43.783-49.911,54.729c-2.837,8.529-0.373,18.616,0.876,20.578c7.443,1.313,49.474-16.638,58.668-35.465&#10;&#9;&#9;&#9;&#9;&#9;&#9;C829.939,739.499,823.42,740.186,823.42,740.186z"/>
            </g>
          </g>
          <g id="Shape_155">
            <g>
              <path fill-rule="evenodd" clip-rule="evenodd" d="M632.208,788.542c-1.313-3.065-55.207-60.256-58.71-60.256&#10;&#9;&#9;&#9;&#9;&#9;&#9;c0.876,3.94,0.876,7.026,0.438,13.156c-0.438,6.13-11.983,29.782-13.343,30.462c-2.627,1.313-5.585,3.962-5.585,3.962&#10;&#9;&#9;&#9;&#9;&#9;&#9;s0.319,0.35,3.549,1.695c16.365,6.825,66.203,27.474,68.397,26.742C629.581,803.429,633.521,791.606,632.208,788.542z"/>
            </g>
          </g>
          <g id="Shape_153">
            <g>
              <path fill-rule="evenodd" clip-rule="evenodd" d="M889.645,850.715c-22.767,24.519-106.39,59.545-124.777,69.615&#10;&#9;&#9;&#9;&#9;&#9;&#9;c-14.448,7.006-31.376,17.318-58.668,44.222c-6.567,4.816-14.739,6.409-20.577,1.751c-4.816-2.627-39.404-33.275-69.176-43.346&#10;&#9;&#9;&#9;&#9;&#9;&#9;c-56.479-29.335-89.752-32.837-122.589-52.54c-5.691,6.13-6.061,5.051-3.94,6.13c48.599,30.648,54.728,15.324,123.027,52.54&#10;&#9;&#9;&#9;&#9;&#9;&#9;c23.204,10.07,64.359,37.216,68.737,42.471c4.378,5.254,14.886,8.756,26.269,0c11.384-8.757,28.021-24.957,49.036-38.092&#10;&#9;&#9;&#9;&#9;&#9;&#9;c21.015-13.136,120.399-55.168,138.35-76.184C891.834,852.466,895.336,856.406,889.645,850.715z"/>
            </g>
          </g>
          <g id="Shape_159">
            <g>
              <path fill-rule="evenodd" clip-rule="evenodd" d="M893.437,851.909c-0.902,3.608-1.805,3.007,0.902,3.909&#10;&#9;&#9;&#9;&#9;&#9;&#9;c50.765,54.673,71.126,110.217,79.69,133.515c2.706,2.707,1.504,1.805,3.608,3.008&#10;&#9;&#9;&#9;&#9;&#9;&#9;C954.182,918.968,908.473,866.343,893.437,851.909z"/>
            </g>
          </g>
          <g id="Shape_152">
            <g>
              <path fill-rule="evenodd" clip-rule="evenodd" d="M842.42,691.316c-3.016-4.112-9.047-9.594-9.047-9.594&#10;&#9;&#9;&#9;&#9;&#9;&#9;s2.467,6.03,7.95,12.061c2.467,18.64-3.564,94.569,48.248,157.342c-1.919,4.386-0.549,8.224,6.03,3.563&#10;&#9;&#9;&#9;&#9;&#9;&#9;C869.009,818.795,850.737,802.592,842.42,691.316z"/>
            </g>
          </g>
          <g id="Shape_149">
            <g>
              <path fill-rule="evenodd" clip-rule="evenodd" d="M834.414,652.719c-0.642-3.207-2.353-6.2-4.704-7.055&#10;&#9;&#9;&#9;&#9;&#9;&#9;c-2.352,0.854-7.696,8.765-9.406,10.903c-1.71,2.138-3.635,17.531-3.635,17.531s4.063-14.966,5.131-16.89&#10;&#9;&#9;&#9;&#9;&#9;&#9;c0.94-1.693,5.585-8.74,8.364-8.74s2.967,4.573,2.325,7.354c-5.559,27.365,4.063,30.035,4.063,30.035&#10;&#9;&#9;&#9;&#9;&#9;&#9;S828.642,681.153,834.414,652.719z"/>
            </g>
          </g>
          <g id="Shape_148">
            <g>
              <path fill-rule="evenodd" clip-rule="evenodd" d="M815.363,673.705c-10.445,23.264-41.959,49.785-86.927,74.858&#10;&#9;&#9;&#9;&#9;&#9;&#9;C717.037,789.525,712.933,803.407,716,798.5c1.207,4.707,2.362-8.053,13.621-48.707C739.938,744.918,803.387,708.269,817,675&#10;&#9;&#9;&#9;&#9;&#9;&#9;C818.709,672.795,816.249,671.732,815.363,673.705z"/>
            </g>
          </g>
          <g id="Shape_150">
            <g>
              <path fill-rule="evenodd" clip-rule="evenodd" d="M947.67,690.202c-4.507,2.065-30.236-0.376-27.795,4.695&#10;&#9;&#9;&#9;&#9;&#9;&#9;c-6.386,0.938-46.576,1.69-54.276,0.563s-32.932-14.836-32.932-14.836l3.07,3.942c0,0,21.41,11.832,29.674,12.959&#10;&#9;&#9;&#9;&#9;&#9;&#9;c9.371,1.278,51.834-0.375,55.591-0.563c-1.503-5.259,19.907-3.943,25.354-4.695c1.69,3.381,3.381,3.005,3.381,3.005&#10;&#9;&#9;&#9;&#9;&#9;&#9;S948.797,690.202,947.67,690.202z"/>
            </g>
          </g>
          <g id="Shape_151">
            <g>
              <path fill-rule="evenodd" clip-rule="evenodd" d="M1009.731,899.929c0,0-48.395-99.572-54.191-115.201&#10;&#9;&#9;&#9;&#9;&#9;&#9;c-5.798-15.629-13.611-87.724-11.595-87.976c-1.521-0.461-1.319-0.502-1.765,0.504c-2.01,4.54,5.293,74.111,10.839,88.229&#10;&#9;&#9;&#9;&#9;&#9;&#9;c5.545,14.116,57.708,121.032,57.708,121.032L1009.731,899.929z"/>
            </g>
          </g>
          <g id="Shape_112">
            <g>
              <path fill-rule="evenodd" clip-rule="evenodd" d="M942.504,695.875c-0.321,1.926,0.058,0.547,0.746,2.321&#10;&#9;&#9;&#9;&#9;&#9;&#9;c200.754-43.325,266.253,120.76,281.151,257.735c2.146-0.537,1.073,1.781,2.683,1.781&#10;&#9;&#9;&#9;&#9;&#9;&#9;C1207.443,795.836,1133.686,654.867,942.504,695.875z"/>
            </g>
          </g>
          <g id="Shape_113">
            <g>
              <path fill-rule="evenodd" clip-rule="evenodd" d="M1224.82,953.866c0,1.072-0.268,0.804-0.268,1.876&#10;&#9;&#9;&#9;&#9;&#9;&#9;c7.236,2.412,42.882,57.623,49.85,61.911C1261.271,1000.769,1237.685,961.37,1224.82,953.866z"/>
            </g>
          </g>
          <g id="Shape_165">
            <g>
              <path fill-rule="evenodd" clip-rule="evenodd" d="M658,984.333c-28.333-1.333-26,1.334-29.667,37c-0.333,5,10.334,16,10,0&#10;&#9;&#9;&#9;&#9;&#9;&#9;C638.333,999,635.667,994,655,995c18.583-1.75,14.667,6.333,14.333,35.333c0.334,18.69,9,8.095,9-1.333&#10;&#9;&#9;&#9;&#9;&#9;&#9;C677.764,996.693,684.583,985.167,658,984.333z"/>
            </g>
          </g>
          <g id="Shape_166">
            <g>
              <path fill-rule="evenodd" clip-rule="evenodd" d="M726.333,986.333c-34-0.666-27,44-27,44l12.667,1c0,0-8-36.666,13.667-35.333&#10;&#9;&#9;&#9;&#9;&#9;&#9;c21.666,1.333,9,37.667,9,37.667l12.666,1.333C747.333,1035,760.333,987,726.333,986.333z"/>
            </g>
          </g>
          <g id="Shape_167">
            <g>
              <path fill-rule="evenodd" clip-rule="evenodd" d="M942.667,973c-31.334-2.333-77.334,43.333-77.334,43.333s48.667-40.666,77-40&#10;&#9;&#9;&#9;&#9;&#9;&#9;C970.667,977,1002,1021.667,1002,1021.667S974,975.333,942.667,973z"/>
            </g>
          </g>
        </g>
      </g>
      <g id="Eyes_Outline_1_">
        <g id="Shape_84">
          <g>
            <path fill-rule="evenodd" clip-rule="evenodd" d="M794.333,524C803,525,795,525,823,524c10.628-2.43,9.645-1.543,24.25-9.932&#10;&#9;&#9;&#9;&#9;&#9;C823.688,526.021,793.397,519.321,794.333,524z M847.25,514.068c1.618-0.821,3.207-1.728,4.75-2.735&#10;&#9;&#9;&#9;&#9;&#9;C850.248,512.343,848.678,513.248,847.25,514.068z"/>
          </g>
        </g>
        <g id="Shape_83">
          <g>
            <path fill-rule="evenodd" clip-rule="evenodd" d="M784.774,487.321c11-3.667,16.559-6.654,16.559-6.654l15.334-12&#10;&#9;&#9;&#9;&#9;&#9;C816.667,468.667,787.99,483.52,784.774,487.321z"/>
          </g>
        </g>
        <g id="Shape_74">
          <g>
            <path fill-rule="evenodd" clip-rule="evenodd" d="M651.688,507.281c-24.75-33.5-69.938-29.281-110.938,0.469&#10;&#9;&#9;&#9;&#9;&#9;c10.149,5.296,14.508,13.343,24.25,22.25c-7-11.5-8.25-13.75-13.75-20.25C567.25,494.75,606.688,474.781,651.688,507.281z"/>
          </g>
        </g>
        <g id="Shape_76">
          <g>
            <path fill-rule="evenodd" clip-rule="evenodd" d="M580.25,536.181c-8.5-1-1.5,0.25-10.5,0.5c19,2.75,22,4,38.75,3.25&#10;&#9;&#9;&#9;&#9;&#9;s31.75-4.75,36.5-7.25C599.804,539.904,591.413,535.572,580.25,536.181z"/>
          </g>
        </g>
        <g id="Shape_75">
          <g>
            <path fill-rule="evenodd" clip-rule="evenodd" d="M557.75,502.25c-4.25,1.25-28-10.25-40.5-17.25&#10;&#9;&#9;&#9;&#9;&#9;c15.75,10.5,33.25,21.5,33.25,21.5S562,501,557.75,502.25z"/>
          </g>
        </g>
        <g id="Shape_79">
          <g>
            <path fill-rule="evenodd" clip-rule="evenodd" d="M629.123,490.092C621.601,487.912,615,486,615,486l20.333,9l3.667,2.667&#10;&#9;&#9;&#9;&#9;&#9;l11.667-1.334C650.667,496.333,639.086,492.979,629.123,490.092z"/>
          </g>
        </g>
        <g id="Shape_80">
          <g>
            <path fill-rule="evenodd" clip-rule="evenodd" d="M592,482c28.333,0,18-1.333,35,1.333c17,2.667,21,6,27.667,10.334&#10;&#9;&#9;&#9;&#9;&#9;C649.333,487.333,630.333,475.667,592,482z"/>
          </g>
        </g>
        <g id="Shape_81">
          <g>
            <path fill-rule="evenodd" clip-rule="evenodd" d="M823.643,463.394c-15.214,1.452-28.19,12.872-36.976,33.606&#10;&#9;&#9;&#9;&#9;&#9;C800.333,479.333,804,480.333,817,472s34.667,3.333,50.333,0.333C850.135,471.96,846.643,463.727,823.643,463.394z"/>
          </g>
        </g>
        <g id="Shape_82">
          <g>
            <polygon fill-rule="evenodd" clip-rule="evenodd" points="853,471.333 857,471.333 867.333,458 &#9;&#9;&#9;&#9;"/>
          </g>
        </g>
      </g>
      <g id="Ears_Outline_1_">
        <g id="Shape_90">
          <g>
            <path fill-rule="evenodd" clip-rule="evenodd" d="M883.557,503.133c-0.022,3.886-1.26,7.424,3.714,6.181&#10;&#9;&#9;&#9;&#9;&#9;c8.855-3.864,11.557-13.751,12.362-17.521C897.34,497.734,884.427,518.021,883.557,503.133z M899.939,490.312&#10;&#9;&#9;&#9;&#9;&#9;c-0.037,0.074-0.122,0.618-0.307,1.482C899.931,491.021,900.051,490.489,899.939,490.312z"/>
          </g>
        </g>
        <g id="Shape_91">
          <g>
            <path fill-rule="evenodd" clip-rule="evenodd" d="M904.777,460.173c-2.683-0.559-5.505,8.202-10.198,20.494&#10;&#9;&#9;&#9;&#9;&#9;c-8.158,20.448-7.265,5.063-13.188,29.088c7.487-21.566,2.766-7.436,11.482-21.18c1.229-3.018,8.327-26.189,11.68-26.525&#10;&#9;&#9;&#9;&#9;&#9;c4.022,0.56,13.675,12.631,13.563,12.519C918.006,474.457,909.806,461.179,904.777,460.173z"/>
          </g>
        </g>
        <g id="Shape_89">
          <g>
            <path fill-rule="evenodd" clip-rule="evenodd" d="M901.031,514.631c-0.434,1.164-13.602,24.894-22.188,19.927&#10;&#9;&#9;&#9;&#9;&#9;c0.599,1.035,0.439,3.199,5.432,1.337c11.138-4.88,15.047-13.768,24.631-33.636c2.196-11.177,1.198-15.729,8.387-24.422&#10;&#9;&#9;&#9;&#9;&#9;C905.911,483.425,911.119,501.717,901.031,514.631z"/>
          </g>
        </g>
        <g id="Shape_92">
          <g>
            <path fill-rule="evenodd" clip-rule="evenodd" d="M492.5,570.25c-30.236-26.835-48.25-29.5-70.75-60.5&#10;&#9;&#9;&#9;&#9;&#9;c-1.465-1.279-2-25,0.25-30c1-2.5,6.25,0.25,1-27c0.5,0.75-2.25-14.5,13.25-27.25c-5,3.25-13.5,8-14.75,27&#10;&#9;&#9;&#9;&#9;&#9;c0.25,2.25,6.5,21.75-1.75,28.5c-0.5,12.75-1.5,28.25,0.5,30.25c23.25,31.25,35,28,72,61.75c4.25-0.5,16.75-7,16.75-7&#10;&#9;&#9;&#9;&#9;&#9;S499.5,568,492.5,570.25z"/>
          </g>
        </g>
        <g id="Shape_93">
          <g>
            <path fill-rule="evenodd" clip-rule="evenodd" d="M480.743,477.81c-0.772-3.311-1.014,4.945-1.243,0.19&#10;&#9;&#9;&#9;&#9;&#9;c-0.25,6.25-0.75,13.25,1,17.25c2.007,4.587,11.634,22.535,18.5,35.25C489.364,507.182,478.591,497.197,480.743,477.81z"/>
          </g>
        </g>
        <g id="Shape_94">
          <g>
            <path fill-rule="evenodd" clip-rule="evenodd" d="M500.25,536.5c-8-4.25-20-2.75-30.75-3c-3.25-2.75-11.25-10.25-12.75-11.25&#10;&#9;&#9;&#9;&#9;&#9;s-6-4.25-10.5-7.5c7,8.5,20.25,17,22,20.25c7.5,4.25,17.5-3.25,32.75,4.25C500.25,537.25,501.5,539.5,500.25,536.5z"/>
          </g>
        </g>
        <g id="Shape_95">
          <g>
            <path fill-rule="evenodd" clip-rule="evenodd" d="M497.721,527.887c0,0-21.913-15.65-23.008-18.467&#10;&#9;&#9;&#9;&#9;&#9;c1.564-5.165,6.104-15.338,6.104-15.338s-7.982,13.616-7.982,15.494c0.939,1.878,25.825,21.284,25.825,21.284L497.721,527.887z"/>
          </g>
        </g>
        <g id="Shape_96">
          <g>
            <path fill-rule="evenodd" clip-rule="evenodd" d="M472.678,485.475c-4.383,4.226-14.869,18.937-16.435,26.136&#10;&#9;&#9;&#9;&#9;&#9;c1.409,7.199,7.67,12.051,7.67,12.051s-10.33-11.425-2.974-19.25c1.252-1.564,7.981-14.711,12.052-16.902&#10;&#9;&#9;&#9;&#9;&#9;c5.008,1.565,7.981,5.165,7.981,5.165S478.625,486.57,472.678,485.475z"/>
          </g>
        </g>
      </g>
      <g id="Hair_Outline_3_1_">
        <g id="Shape_111">
          <g>
            <path fill-rule="evenodd" clip-rule="evenodd" d="M937.45,167.282c4.421,23.965,6.282,49.79,6.282,49.79h1.629&#10;&#9;&#9;&#9;&#9;&#9;C945.361,217.072,943.268,184.034,937.45,167.282z"/>
          </g>
        </g>
        <g id="Shape_104">
          <g>
            <path fill-rule="evenodd" clip-rule="evenodd" d="M382.5,232.125c0.539,9.166,3.544,16.7,2.196,19.665&#10;&#9;&#9;&#9;&#9;&#9;c-1.348,2.966-4.583,5.122-8.627,7.279c5.122-2.157,5.661-0.809,9.975-6.74C386.313,245.32,384.927,242.369,382.5,232.125z"/>
          </g>
        </g>
        <g id="Shape_105">
          <g>
            <path fill-rule="evenodd" clip-rule="evenodd" d="M432.412,139.913c-1.887,3.235-0.024,6.264-1.912,8.42&#10;&#9;&#9;&#9;&#9;&#9;c-1.887,2.157-6.444,3.981-6.444,3.981s0.539,4.583-1.618,6.2c-2.156,1.617-29.653,11.322-31.541,14.288&#10;&#9;&#9;&#9;&#9;&#9;c-1.887,2.965,3.774,43.672,3.774,43.672L377.25,227.5c0,0,14.455-6.173,18.769-11.025c0.27-6.739-3.774-39.089-2.965-42.324&#10;&#9;&#9;&#9;&#9;&#9;c0.809-3.235,24.802-10.514,28.306-12.939c3.505-2.427,3.235-5.122,5.122-7.549c1.888-2.426,3.464-1.696,5.352-4.662&#10;&#9;&#9;&#9;&#9;&#9;c1.887-2.965,0.579-6.121,2.736-8.817c2.156-2.695,13.21-14.826,13.21-14.826S434.3,136.679,432.412,139.913z"/>
          </g>
        </g>
        <g id="Shape_108">
          <g>
            <path fill-rule="evenodd" clip-rule="evenodd" d="M883.936,169.377c0,0,9.307-17.683,14.426-37.459&#10;&#9;&#9;&#9;&#9;&#9;c1.163-6.747,0-1.861,1.163-10.004C895.569,140.294,883.936,169.377,883.936,169.377z"/>
          </g>
        </g>
        <g id="Shape_108_copy">
          <g>
            <path fill-rule="evenodd" clip-rule="evenodd" d="M914.56,132.632c-5.854,17.866-20.893,45.785-20.893,45.785&#10;&#9;&#9;&#9;&#9;&#9;s11.916-16.5,18.69-35.957c0.503-1.446,0.791-2.338,0.957-2.94C913.892,137.428,915.188,134,914.56,132.632z"/>
          </g>
        </g>
        <g id="Shape_109">
          <g>
            <path fill-rule="evenodd" clip-rule="evenodd" d="M927.213,148.67c2.792,8.841,1.287,67.164,1.287,67.164l2,0.417&#10;&#9;&#9;&#9;&#9;&#9;C930.5,216.25,932.099,153.323,927.213,148.67z"/>
          </g>
        </g>
        <g id="Shape_110">
          <g>
            <path fill-rule="evenodd" clip-rule="evenodd" d="M934.167,160.417c2.792,6.282,10.497,21.989,20.967,58.982&#10;&#9;&#9;&#9;&#9;&#9;c0.931,0.232,1.629,0.698,1.629,0.698S942.311,166.699,934.167,160.417z"/>
          </g>
        </g>
        <g id="Shape_146">
          <g>
            <path fill-rule="evenodd" clip-rule="evenodd" d="M916.528,116.333c-6.319-2.329-13.028-2.861-13.25-2.64&#10;&#9;&#9;&#9;&#9;&#9;c-0.111,0.887,9.782,2.115,12.222,3.557c0.998,1.996,1.197,13.894,2.307,16.998&#10;&#9;&#9;&#9;&#9;&#9;C918.472,131.476,917.305,117.663,916.528,116.333z"/>
          </g>
        </g>
        <g id="Shape_147">
          <g>
            <path fill-rule="evenodd" clip-rule="evenodd" d="M926.098,134.053c0,0-7.761-0.666-9.867-0.666&#10;&#9;&#9;&#9;&#9;&#9;c-1.774,1.331,3.548,1.441,8.647,1.774c1.331,0.222,8.759,26.057,10.865,27.941&#10;&#9;&#9;&#9;&#9;&#9;C936.631,162.881,926.098,134.053,926.098,134.053z"/>
          </g>
        </g>
        <polygon fill-rule="evenodd" clip-rule="evenodd" points="913.656,135.25 914.563,132.531 915.219,132.641 914.094,136.813 &#9;&#9;"/>
      </g>
      <g id="Hair_Outline_2_1_">
        <g id="Shape_103">
          <g>
            <path fill-rule="evenodd" clip-rule="evenodd" d="M417.114,167.079c-0.239,14.171,52.501,51.014,52.501,51.014l2.156-0.539&#10;&#9;&#9;&#9;&#9;&#9;C471.771,217.554,428.875,188.5,417.114,167.079z"/>
          </g>
        </g>
        <g id="Shape_97">
          <g>
            <path fill-rule="evenodd" clip-rule="evenodd" d="M378.766,278.479c-2.966,12.67,1.617,29.384,3.773,39.628&#10;&#9;&#9;&#9;&#9;&#9;c2.157,10.244,7.818,25.071,10.515,38.551C393.054,348.84,379.035,299.507,378.766,278.479z"/>
          </g>
        </g>
        <g id="Shape_98">
          <g>
            <path fill-rule="evenodd" clip-rule="evenodd" d="M424.325,286.836c2.695,4.044,7.548,9.975,7.548,9.975&#10;&#9;&#9;&#9;&#9;&#9;S428.1,286.297,424.325,286.836z"/>
          </g>
        </g>
        <g id="Shape_99">
          <g>
            <path fill-rule="evenodd" clip-rule="evenodd" d="M385.235,274.166c0,0,0,6.47,3.235,18.601c1.887,9.166,6.2,18.063,6.2,18.063&#10;&#9;&#9;&#9;&#9;&#9;L385.235,274.166z"/>
          </g>
        </g>
        <g id="Shape_100">
          <g>
            <polygon fill-rule="evenodd" clip-rule="evenodd" points="397.906,313.795 395.479,312.446 411.654,343.988 &#9;&#9;&#9;&#9;"/>
          </g>
        </g>
        <g id="Shape_101">
          <g>
            <path fill-rule="evenodd" clip-rule="evenodd" d="M406.532,249.095c2.966,6.47-1.617-3.235-8.356-23.993&#10;&#9;&#9;&#9;&#9;&#9;c-1.618,5.392,13.209,43.134,18.87,47.177C411.115,259.878,403.567,242.625,406.532,249.095z"/>
          </g>
        </g>
        <g id="Shape_66">
          <g>
            <path fill-rule="evenodd" clip-rule="evenodd" d="M393.695,313.396c25.381-21.838,52.532-43.675,52.532-43.675&#10;&#9;&#9;&#9;&#9;&#9;S415.534,287.428,393.695,313.396z"/>
          </g>
        </g>
        <g id="Shape_65">
          <g>
            <path fill-rule="evenodd" clip-rule="evenodd" d="M353.583,509.334c0,18.296-0.188,49.869-5.5,111.25&#10;&#9;&#9;&#9;&#9;&#9;C351.035,611.141,359.486,537.073,353.583,509.334z"/>
          </g>
        </g>
        <g id="Shape_63">
          <g>
            <path fill-rule="evenodd" clip-rule="evenodd" d="M414.975,389.641c0,0-2.657,2.656-11.515,15.497&#10;&#9;&#9;&#9;&#9;&#9;c7.086-77.928,29.672-112.907,53.588-150.101c-49.159,54.462-58.017,153.643-56.688,161.613&#10;&#9;&#9;&#9;&#9;&#9;c5.758-6.643,11.958-19.04,11.958-19.04s-5.314,35.865-7.529,49.591c5.314-15.054,29.229-47.819,35.873-62.431&#10;&#9;&#9;&#9;&#9;&#9;c-14.615,19.481-30.115,45.605-30.115,45.605L414.975,389.641z"/>
          </g>
        </g>
        <g id="Shape_64">
          <g>
            <path fill-rule="evenodd" clip-rule="evenodd" d="M339.571,223.089c5-30,12.787-41.171,29.787-76.171&#10;&#9;&#9;&#9;&#9;&#9;c-58,73-44.302,247.642-40.302,291.642c19,137,28.11,162.88-2.578,270.141c18.361-59.229,37.878-85.764,9.878-242.764&#10;&#9;&#9;&#9;&#9;&#9;C317.356,320.937,334.571,253.089,339.571,223.089z"/>
          </g>
        </g>
        <g id="Shape_61">
          <g>
            <path fill-rule="evenodd" clip-rule="evenodd" d="M410.103,501.22c-7.086-35.864-12.843-43.392-24.358-116.893&#10;&#9;&#9;&#9;&#9;&#9;c-3.543,57.118,55.803,181.537,30.559,309.499C437.118,641.579,417.188,537.084,410.103,501.22z"/>
          </g>
        </g>
        <g id="Shape_59">
          <g>
            <path fill-rule="evenodd" clip-rule="evenodd" d="M495.5,571.75c-2.75-0.5-4.25-0.5-4.25-0.5s-13.25,64.5-3,124&#10;&#9;&#9;&#9;&#9;&#9;c2.25,2-8.25-70.25,4.75-119.5c-1,71.5,5.5,120.5,10.25,122.75C494.75,676.25,493.25,575.75,495.5,571.75z"/>
          </g>
        </g>
        <g id="Shape_58">
          <g>
            <path fill-rule="evenodd" clip-rule="evenodd" d="M451,488c2.5-10.5,40.25-52,36.25-52.25c1.5-5.75-38,47.5-44.75,58.5&#10;&#9;&#9;&#9;&#9;&#9;c7.25,0,69.75-27.75,76.25-35.75C492.5,471.25,473.75,480,451,488z"/>
          </g>
        </g>
        <g id="Shape_55">
          <g>
            <path fill-rule="evenodd" clip-rule="evenodd" d="M882.448,88.262c-5.208,1.848-6.488,4.647-9.412,3.858&#10;&#9;&#9;&#9;&#9;&#9;c-3.536-0.954-9.703-4.37-9.703-4.37s9.431,6.1,10.942,6.436c5.208-2.352,7.515-2.892,7.851-2.892&#10;&#9;&#9;&#9;&#9;&#9;c5.543,3.359,11.314,12.291,22.57,24.554C899.152,105.601,886.647,92.461,882.448,88.262z"/>
          </g>
        </g>
        <g id="Shape_56">
          <g>
            <path fill-rule="evenodd" clip-rule="evenodd" d="M470,217c-40.6,23-78.2,95.8-78.4,99.6c9.801-17.8,35.601-58,49.4-73.399&#10;&#9;&#9;&#9;&#9;&#9;c30.8-32.2,58.4-38.4,96.8-44.4C520.2,199.2,495.2,203.8,470,217z"/>
          </g>
        </g>
        <g id="Shape_40">
          <g>
            <path fill-rule="evenodd" clip-rule="evenodd" d="M838.393,116.393c-19.011,14.576-24.081,19.012-24.081,19.012l49.007-35.488&#10;&#9;&#9;&#9;&#9;&#9;C863.318,99.916,857.404,101.817,838.393,116.393z"/>
          </g>
        </g>
        <g id="Shape_41">
          <g>
            <path fill-rule="evenodd" clip-rule="evenodd" d="M781.858,53.646c-53.814-4.639-102.371,14.842-112.887,21.645&#10;&#9;&#9;&#9;&#9;&#9;c94.948-34.632,131.443-23.191,203.195,17.626C855.467,81.475,817.425,57.975,781.858,53.646z"/>
          </g>
        </g>
        <g id="Shape_42">
          <g>
            <path fill-rule="evenodd" clip-rule="evenodd" d="M668.969,75.449c0,0-40.206-16.389-93.401-11.132&#10;&#9;&#9;&#9;&#9;&#9;c-53.196,5.257-84.124,27.521-99.588,37.725s-29.382,23.81-40.825,36.797c35.877-40.508,88.145-60.606,100.825-64.936&#10;&#9;&#9;&#9;&#9;&#9;c74.536-21.027,131.134,3.401,131.134,3.401s6.495,1.546,12.681,29.685C679.175,83.18,668.969,75.449,668.969,75.449z"/>
          </g>
        </g>
        <g id="Shape_43">
          <g>
            <path fill-rule="evenodd" clip-rule="evenodd" d="M541.855,153.063c-11.134-5.256-30-13.605-60.31-13.605&#10;&#9;&#9;&#9;&#9;&#9;c7.577,4.606,9.434,6.629,12.372,9.896c-21.959-2.165-17.32-3.093-45.465-2.474c31.856,2.164,39.278,4.638,54.124,5.257&#10;&#9;&#9;&#9;&#9;&#9;c-6.186-5.566-7.423-4.948-10.824-7.73C496.392,143.168,503.196,143.478,541.855,153.063z"/>
          </g>
        </g>
        <g id="Shape_44">
          <g>
            <path fill-rule="evenodd" clip-rule="evenodd" d="M554.846,144.405c0,0-21.649,33.396-31.856,55.659&#10;&#9;&#9;&#9;&#9;&#9;c15.464-25.047,32.784-53.186,32.784-53.186s27.216-4.639,67.113,15.151C591.031,141.313,554.846,144.405,554.846,144.405z"/>
          </g>
        </g>
        <g id="Shape_45">
          <g>
            <path fill-rule="evenodd" clip-rule="evenodd" d="M622.577,153.682c-3.402,0-5.258,4.638-5.258,4.638l5.567-1.854&#10;&#9;&#9;&#9;&#9;&#9;c0,0,10.824,4.02,41.443,36.797C642.989,162.648,625.36,155.537,622.577,153.682z"/>
          </g>
        </g>
        <g id="Shape_46">
          <g>
            <path fill-rule="evenodd" clip-rule="evenodd" d="M671.134,113.483c-7.731,0.309-60.928,32.776-62.783,39.579&#10;&#9;&#9;&#9;&#9;&#9;c54.742-37.105,59.382-34.632,63.093-36.178c6.804-0.619,53.195,33.704,67.113,42.672&#10;&#9;&#9;&#9;&#9;&#9;C721.547,145.642,678.866,113.174,671.134,113.483z"/>
          </g>
        </g>
        <g id="Shape_47">
          <g>
            <path fill-rule="evenodd" clip-rule="evenodd" d="M822.989,162.34c-42.989-6.494-98.969-2.474-92.165-1.855&#10;&#9;&#9;&#9;&#9;&#9;c6.805,0.618,84.432-3.675,107.885,8.244c44.726,14.36,88.508,48.651,89.744,46.178&#10;&#9;&#9;&#9;&#9;&#9;C929.69,212.433,856.392,166.359,822.989,162.34z"/>
          </g>
        </g>
        <g id="Shape_48">
          <g>
            <path fill-rule="evenodd" clip-rule="evenodd" d="M672.938,508.389c-0.807,2.243-1.383,4.007-1.621,5.29&#10;&#9;&#9;&#9;&#9;&#9;C671.882,511.939,672.421,510.174,672.938,508.389z M682.483,360.349c3.866,29.206,5.154,45.097,1.718,103.079&#10;&#9;&#9;&#9;&#9;&#9;c-2.576-57.982-1.288-97.926-21.475-132.285c18.706,49.883,25.743,123.501,10.211,177.246&#10;&#9;&#9;&#9;&#9;&#9;C679.425,490.362,700.896,441.283,682.483,360.349z"/>
          </g>
        </g>
        <g id="Shape_49">
          <g>
            <path fill-rule="evenodd" clip-rule="evenodd" d="M654.54,341.422c-1.438-0.886-2.29-7.755-2.29-7.755s0.077,6.538-1.14,7.202&#10;&#9;&#9;&#9;&#9;&#9;s-4.022-3.729-6.235-3.618c-0.463,1.247-2.013,5.288-2.375,7.583c-0.763,4.834-0.417,15.333-0.417,15.333&#10;&#9;&#9;&#9;&#9;&#9;s2.467-20.251,3.905-20.251c7.303,2.766,7.113,8.212,7.445,7.991c1.991-5.753,1.658-5.576,9.846-18.078&#10;&#9;&#9;&#9;&#9;&#9;C657.526,335.359,656.643,339.209,654.54,341.422z"/>
          </g>
        </g>
        <g id="Shape_50">
          <g>
            <path fill-rule="evenodd" clip-rule="evenodd" d="M636.938,284.938c2.102,14.971,15.503,107.179-24.422,185.97&#10;&#9;&#9;&#9;&#9;&#9;c8.668-29.153,16.811-78.528,10.77-125.016c-4.728,0.788,14.446,84.832-29.681,161.784&#10;&#9;&#9;&#9;&#9;&#9;C623.548,463.815,656.374,384.215,636.938,284.938z"/>
          </g>
        </g>
        <g id="Shape_51">
          <g>
            <path fill-rule="evenodd" clip-rule="evenodd" d="M653.677,306.186c0.032,6.314,1.915,19.483-0.187,31.039&#10;&#9;&#9;&#9;&#9;&#9;c-5.253-15.495-9.398-33.452-16.49-52.1c3.677,18.385,13.602,49.474,16.49,63.656&#10;&#9;&#9;&#9;&#9;&#9;C656.117,332.234,656.375,310.083,653.677,306.186z"/>
          </g>
        </g>
        <g id="Shape_52">
          <g>
            <path fill-rule="evenodd" clip-rule="evenodd" d="M558.484,478.045c6.061-7.876,29.395-75.433,26.97-92.095&#10;&#9;&#9;&#9;&#9;&#9;c-12.413,58.494-17.721,59.707-28.247,90.759c-3.521,6.782-10.08,11.997-13.268,15.877&#10;&#9;&#9;&#9;&#9;&#9;c32.728-23.932,67.576-51.5,80.909-115.118C613.637,421.395,585.454,460.777,558.484,478.045z"/>
          </g>
        </g>
        <g id="Shape_53">
          <g>
            <path fill-rule="evenodd" clip-rule="evenodd" d="M1007.174,318.935c1.239,27.677,1.287,89.664-12.761,163.608&#10;&#9;&#9;&#9;&#9;&#9;c-7.024,40.896-17.569,132.213-7.652,166.913c0-22.721-3.306-59.559,2.892-109.13c0.413-26.852,14.087-94.127,17.806-119.326&#10;&#9;&#9;&#9;&#9;&#9;C1009.523,396.214,1012.545,337.523,1007.174,318.935z"/>
          </g>
        </g>
        <g id="Shape_57">
          <g>
            <path fill-rule="evenodd" clip-rule="evenodd" d="M510.25,468.75c0,0,39-41.5,37.75-46.5c-7.5,10.25-49.5,58-49.5,58&#10;&#9;&#9;&#9;&#9;&#9;s87.62-63.073,86.75-91.5C579.612,417.251,510.25,468.75,510.25,468.75z"/>
          </g>
        </g>
      </g>
      <g id="Hair_Outline_1_1_">
        <g id="Shape_102">
          <g>
            <path fill-rule="evenodd" clip-rule="evenodd" d="M389.818,222.137c-3.585,0.768,16.444,60.655,19.41,63.891&#10;&#9;&#9;&#9;&#9;&#9;C394.671,242.085,393.593,230.763,389.818,222.137z"/>
          </g>
        </g>
        <g id="Shape_62">
          <g>
            <path fill-rule="evenodd" clip-rule="evenodd" d="M432.246,510.518c-5.314-51.361,10.629-108.922,18.602-148.329&#10;&#9;&#9;&#9;&#9;&#9;c-10.187,31.88-29.673,117.335-19.487,155.856c4.872-6.642,10.629-16.383,18.602-28.78&#10;&#9;&#9;&#9;&#9;&#9;C442.333,490.833,438.004,502.105,432.246,510.518z"/>
          </g>
        </g>
        <g id="Shape_60">
          <g>
            <path fill-rule="evenodd" clip-rule="evenodd" d="M425.25,516.5l-2.75-3.25c0,0,5.75,52.75,7,97.25&#10;&#9;&#9;&#9;&#9;&#9;C432.25,570,425.25,516.5,425.25,516.5z"/>
          </g>
        </g>
        <g id="Shape_38">
          <g>
            <path fill-rule="evenodd" clip-rule="evenodd" d="M999.723,264.063c0,0-0.569-15.733-2.123-22.652&#10;&#9;&#9;&#9;&#9;&#9;c0.311-1.508-1.301-0.41-1.301-0.41s1.722,12.258,2.201,22C999.938,264.277,999.723,264.063,999.723,264.063z"/>
          </g>
        </g>
        <g id="Shape_39">
          <g>
            <path fill-rule="evenodd" clip-rule="evenodd" d="M942.319,101.055c-6.571-6.463-4.468-3.918-5.223-1.978&#10;&#9;&#9;&#9;&#9;&#9;c0.963,0.516,0.321,0.405,2.593,2.085c21.123,35.277,38.852,57.182,56.807,136.396c0.845,0.634,0.288,0.115,1.344,0.961&#10;&#9;&#9;&#9;&#9;&#9;C979.463,158.882,967.456,143.514,942.319,101.055z"/>
          </g>
        </g>
        <g id="Shape_37">
          <g>
            <path fill-rule="evenodd" clip-rule="evenodd" d="M922,216c0,0,44.5-0.5,76,24c-36.5-10.5-41.5-3.5-41.5-3.5s8-5,51.5,8&#10;&#9;&#9;&#9;&#9;&#9;C960,208.5,922,216,922,216z"/>
          </g>
        </g>
        <g id="Shape_1">
          <g>
            <path fill-rule="evenodd" clip-rule="evenodd" d="M945.195,336.551c10.196,44.003-11.271,130.397-11.271,130.397l-6.978,18.244&#10;&#9;&#9;&#9;&#9;&#9;c0,0-16.637-75.125-53.668-112.688c42.935,60.369,49.911,105.713,53.132,120.47c4.562-16.635,8.854-24.685,8.854-24.685&#10;&#9;&#9;&#9;&#9;&#9;S959.686,377.334,945.195,336.551z"/>
          </g>
        </g>
        <g id="Shape_2">
          <g>
            <path fill-rule="evenodd" clip-rule="evenodd" d="M992.424,377.602c0-5.902,0-0.268-1.879-8.585&#10;&#9;&#9;&#9;&#9;&#9;c-2.146,38.367,6.709,39.44-26.566,118.859c-0.268,0.536,2.416-40.515-19.052-58.759c21.199,26.562,16.369,56.881,17.979,64.93&#10;&#9;&#9;&#9;&#9;&#9;C981.421,449.508,993.766,428.58,992.424,377.602z"/>
          </g>
        </g>
        <g id="Shape_4">
          <g>
            <path fill-rule="evenodd" clip-rule="evenodd" d="M963.979,488.681c-0.536,0-1.342,1.073-1.342,0.805&#10;&#9;&#9;&#9;&#9;&#9;c4.025,48.027-14.759,106.518,45.082,198.815c0.806,0.805,1.481,1.551,2.823,1.551&#10;&#9;&#9;&#9;&#9;&#9;C953.653,595.14,967.735,561.123,963.979,488.681z"/>
          </g>
        </g>
        <g id="Shape_3">
          <g>
            <path fill-rule="evenodd" clip-rule="evenodd" d="M972.298,280.207c22.272,23.343,33.543,67.076,29.786,127.445&#10;&#9;&#9;&#9;&#9;&#9;c-2.952-22.001-3.757-24.952-11.271-38.904c6.977,22.806,9.66,12.073,8.855,60.905&#10;&#9;&#9;&#9;&#9;&#9;C1011.207,384.846,1005.304,303.281,972.298,280.207z"/>
          </g>
        </g>
        <g id="Shape_5">
          <g>
            <path fill-rule="evenodd" clip-rule="evenodd" d="M899.04,524.634c-0.806-2.951-4.294-1.073-2.415,1.878&#10;&#9;&#9;&#9;&#9;&#9;c19.052,44.808,5.635,118.592,5.635,118.592S917.824,572.393,899.04,524.634z"/>
          </g>
        </g>
        <g id="Shape_6">
          <g>
            <path fill-rule="evenodd" clip-rule="evenodd" d="M926.375,485.938c-0.268-2.951-1.037-1.818-1.574-6.647&#10;&#9;&#9;&#9;&#9;&#9;c3.22,137.373-28.981,191.839-31.933,210.889C910.578,645.104,931.205,585.211,926.375,485.938z"/>
          </g>
        </g>
        <g id="Shape_7">
          <g>
            <path fill-rule="evenodd" clip-rule="evenodd" d="M920.5,466.917c-1.879-10.464-2.14-9.091-6.165-18.75&#10;&#9;&#9;&#9;&#9;&#9;c4.025,23.342,1.879,30.587,1.61,38.099C919.702,479.29,918.89,473.893,920.5,466.917z"/>
          </g>
        </g>
        <g id="Shape_8">
          <g>
            <path fill-rule="evenodd" clip-rule="evenodd" d="M996.448,271.621c43.204,43.733,38.642,89.883,38.642,89.883&#10;&#9;&#9;&#9;&#9;&#9;s-24.419-48.296-44.276-57.149c20.662,12.879,45.35,62.516,45.35,62.516S1041.799,306.232,996.448,271.621z"/>
          </g>
        </g>
        <g id="Shape_9">
          <g>
            <path fill-rule="evenodd" clip-rule="evenodd" d="M946.839,231.639c-0.191-0.088-0.378-0.176-0.57-0.264&#10;&#9;&#9;&#9;&#9;&#9;C946.269,231.396,946.479,231.49,946.839,231.639z M996.18,257.938c-17.796-14.334-45.135-24.563-49.341-26.299&#10;&#9;&#9;&#9;&#9;&#9;c58.801,26.988,70.024,50.521,76.176,73.521C1023.283,290.134,1012.817,275.646,996.18,257.938z"/>
          </g>
        </g>
        <g id="Shape_12">
          <g>
            <path fill-rule="evenodd" clip-rule="evenodd" d="M875.211,427.698c-24.252-21.56-58.04-42.289-58.04-42.289&#10;&#9;&#9;&#9;&#9;&#9;s43.323,30.059,59.077,45.605c14.925,12.023,17.619,14.926,40.213,40.838C888.271,437.441,899.464,449.257,875.211,427.698z"/>
          </g>
        </g>
        <g id="Shape_13">
          <g>
            <path fill-rule="evenodd" clip-rule="evenodd" d="M816.756,383.958c0,0,50.993,46.228,60.321,60.324&#10;&#9;&#9;&#9;&#9;&#9;c-20.729-5.598-90.585-44.362-90.585-44.362s64.467,39.387,89.134,45.605c2.073,0.829,7.255,5.598,13.267,12.023&#10;&#9;&#9;&#9;&#9;&#9;C866.298,421.064,816.756,383.958,816.756,383.958z"/>
          </g>
        </g>
        <g id="Shape_14">
          <g>
            <path fill-rule="evenodd" clip-rule="evenodd" d="M768.597,376.101c-0.926-1.692-1.81-3.362-2.626-4.996&#10;&#9;&#9;&#9;&#9;&#9;C766.6,372.536,767.487,374.215,768.597,376.101z M768.597,376.101c16.001,29.231,47.783,66.578,76.195,90.289&#10;&#9;&#9;&#9;&#9;&#9;c-63.637-23.839-101.83-69.579-108.878-74.762c7.048,11.816,63.189,63.607,116.877,79.155&#10;&#9;&#9;&#9;&#9;&#9;C829.035,453.157,782.119,399.089,768.597,376.101z"/>
          </g>
        </g>
        <g id="Shape_15">
          <g>
            <path fill-rule="evenodd" clip-rule="evenodd" d="M739,394.917c4.833,13.833,20.333,42,38.579,71.339&#10;&#9;&#9;&#9;&#9;&#9;c-4.146,1.658-23.631-32.754-54.31-75.457c6.633,9.536,46.018,78.98,62.394,83.956C764.734,440.848,764.028,444.3,739,394.917z"/>
          </g>
        </g>
        <g id="Shape_16">
          <g>
            <path fill-rule="evenodd" clip-rule="evenodd" d="M695.501,316.667c9.742,27.156,53.887,146.894,57.411,165.758&#10;&#9;&#9;&#9;&#9;&#9;c-20.498-24.412-40.214-51.824-70.479-121.27c9.121,26.949,40.007,94.942,73.795,126.659&#10;&#9;&#9;&#9;&#9;&#9;C738.401,420.028,708.146,347.762,695.501,316.667z"/>
          </g>
        </g>
        <g id="Shape_18">
          <g>
            <polygon fill-rule="evenodd" clip-rule="evenodd" points="527.2,636.4 536.8,684.4 538.4,682.8 &#9;&#9;&#9;&#9;"/>
          </g>
        </g>
      </g>
      <g id="Face_Outline_1_">
        <g id="Nose_1_">
          <g>
            <path fill-rule="evenodd" clip-rule="evenodd" d="M734.854,592.165c-2.134-5.396-2.62-7.267-3.263-14.378&#10;&#9;&#9;&#9;&#9;&#9;c-3.513,24.214,2.761,29.057,3.639,34.953c-0.305,6.393-4.266,11.542-6.398,14.553c0.376,6.273,18.317-14.553,19.321-17.188&#10;&#9;&#9;&#9;&#9;&#9;C748.655,606.969,736.987,597.56,734.854,592.165z"/>
          </g>
        </g>
        <g id="Shape_10">
          <g>
            <path fill-rule="evenodd" clip-rule="evenodd" d="M878.914,529.195c-9.929,90.15-60.109,123.152-78.625,148.104&#10;&#9;&#9;&#9;&#9;&#9;c0.479-1.195-77.492,86.875-100.092,82.639c-30.33-0.866-108.411-76.735-107.874-77.004&#10;&#9;&#9;&#9;&#9;&#9;c-37.818-39.814-86.516-81.639-103.313-206.327c0.805,41.318,17.442,74.052,19.052,89.077&#10;&#9;&#9;&#9;&#9;&#9;c5.904,9.391,15.87,52.161,72.453,108.396c14.343,14.159,93.72,89.771,118.34,88.273c7.823-0.671,17.312,8.72,110.289-92.298&#10;&#9;&#9;&#9;&#9;&#9;c20.533-24.211,48.025-56.077,54.197-71.907c29.519-81.833,1.082-47.757,36.234-141.933&#10;&#9;&#9;&#9;&#9;&#9;C882.402,493.242,877.572,527.316,878.914,529.195z"/>
          </g>
        </g>
        <g id="Shape_11_copy">
          <g>
            <path fill-rule="evenodd" clip-rule="evenodd" d="M708.415,644.798c-13.483,0.749-36.979-1.705-39.462-0.239&#10;&#9;&#9;&#9;&#9;&#9;c-2.966,2.967-2.853,19.834,7.414,39.94c-3.378-6.616,13.105,31.33,31.331,31.33c1.063,0,4.118,1.993,18.894-32.286&#10;&#9;&#9;&#9;&#9;&#9;c8.602-19.956,13.346-34.045,22.003-44.484C730.662,643.145,717.994,644.266,708.415,644.798z M706.023,714.155&#10;&#9;&#9;&#9;&#9;&#9;c-25.521-7.444-41.499-56.483-35.874-67.922c6.696-3.827,28.46,4.065,74.619-4.306&#10;&#9;&#9;&#9;&#9;&#9;C729.701,666.084,715.59,715.352,706.023,714.155z"/>
          </g>
        </g>
      </g>
      <g id="Head_Thing_1_">
        <g id="Shape_34_copy_2">
          <g>
            <path fill-rule="evenodd" clip-rule="evenodd" d="M392.393,56.957c7.215-12.137,83.825-5.699,139.376,16.699&#10;&#9;&#9;&#9;&#9;&#9;c-6.36-11.923-121.229-34.715-139.695-18.781c-30.607,22.511-25.011,172.336-19.698,175.118c8.26-3.365,14.938-5.812,23-13.993&#10;&#9;&#9;&#9;&#9;&#9;c-9.334,7.014-13.078,8.114-22.258,12.056C367.354,201.031,365.78,81.035,392.393,56.957z"/>
          </g>
        </g>
        <g id="Shape_34_copy_3">
          <g>
            <path fill-rule="evenodd" clip-rule="evenodd" d="M916.551,28.234c-18.465-15.934-132.049,13.928-138.409,25.85&#10;&#9;&#9;&#9;&#9;&#9;c55.551-22.398,130.876-35.904,138.091-23.768c26.612,24.078,19.986,102.455,19.598,132.063&#10;&#9;&#9;&#9;&#9;&#9;c0.974,1.947,1.442,2.337,1.248,1.947C936.883,163.937,947.159,50.745,916.551,28.234z"/>
          </g>
        </g>
        <g id="Shape_106">
          <g>
            <path fill-rule="evenodd" clip-rule="evenodd" d="M417.855,109.99c-4.313-4.313,5.931-20.219,17.792-43.673&#10;&#9;&#9;&#9;&#9;&#9;c1.617-5.661,1.078-15.443,1.078-15.443l-6.691-0.27c0,0,1.839,7.895,1.03,14.365c-0.809,6.47-28.846,49.333-27.497,53.646&#10;&#9;&#9;&#9;&#9;&#9;c1.348,4.313,23.993,33.429,23.993,33.429l3.773-3.505l2.696-8.896l6.2-6.2C440.23,133.443,424.325,119.964,417.855,109.99z"/>
          </g>
        </g>
        <g id="Shape_107">
          <g>
            <path fill-rule="evenodd" clip-rule="evenodd" d="M891.403,40.023l0.289-15.481l-4.675,0.195l-1.583,15.399&#10;&#9;&#9;&#9;&#9;&#9;c0,0,16.184,37.339,15.253,41.76c-1.628,3.257-12.099,14.425-12.099,14.425l13.728,16.752c0,0,11.169-13.262,10.936-19.544&#10;&#9;&#9;&#9;&#9;&#9;C913.02,87.247,891.403,40.023,891.403,40.023z"/>
          </g>
        </g>
      </g>
    </g>
  </g>
  <text style="fill: rgb(51, 51, 51); font-family: 'Bruno Ace'; font-size: 31.5px; white-space: pre;" x="62.364" y="39.128" transform="matrix(0.9999999999999999, 0, 0, 0.9999999999999999, 0, 0)">AntaBaka</text>
</svg>